<svg xmlns="http://www.w3.org/2000/svg" viewBox="0 0 900 900" width="900" height="900" preserveAspectRatio="xMidYMid meet" class="mp mp-t-0fqd20o" role="img" aria-label="Map of Europe">
  <title>Map of Europe</title>
  <style>
    .mp.mp-t-0fqd20o {
      --bg: transparent;
      --land: #D8D8D2;
      --land-edge: #FFFFFF;
      --border: #94948C;
      --border-width: 0.75;
      --accent: #C2482F;
      --accent-edge: #FFFFFF;
      --place: #2B2B29;
      --ink: #2B2B29;
      --ink-muted: #80807A;
      --font: ui-sans-serif, system-ui, -apple-system, "Segoe UI", sans-serif;
      --label-size: 13;
      --water: #C8D6DC;
      --road: #B08A3E;
      --neighbour: #F0F0EE;
      --anno: #C2482F;
      --anno-ink: #FFFFFF;
      --furniture-ink: #80807A;
    }
    .mp.mp-t-0fqd20o .mp-bg {
      fill: var(--bg);
    }
    .mp.mp-t-0fqd20o .mp-country {
      fill: var(--land);
      stroke: var(--land-edge);
      stroke-width: 0.5;
      stroke-linejoin: round;
    }
    .mp.mp-t-0fqd20o .mp-country.is-highlighted {
      fill: var(--accent);
      stroke: var(--accent-edge);
    }
    .mp.mp-t-0fqd20o .mp-border {
      fill: none;
      stroke: var(--border);
      stroke-width: var(--border-width);
      stroke-linejoin: round;
      stroke-linecap: round;
    }
    .mp.mp-t-0fqd20o .mp-neighbour {
      fill: var(--neighbour);
      stroke: none;
    }
    .mp.mp-t-0fqd20o .mp-water[data-kind="lake"] {
      fill: var(--water);
      stroke: none;
    }
    .mp.mp-t-0fqd20o .mp-water[data-kind="river"] {
      fill: none;
      stroke: var(--water);
      stroke-width: 0.8;
    }
    .mp.mp-t-0fqd20o .mp-place {
      fill: var(--place);
      stroke: none;
    }
    .mp.mp-t-0fqd20o .mp-road {
      fill: none;
      stroke: var(--road);
    }
    .mp.mp-t-0fqd20o .mp-label {
      fill: var(--ink);
      font-family: var(--font);
      font-size: var(--label-size);
    }
  </style>
  <defs class="mp-defs"/>
  <rect class="mp-bg" x="0" y="0" width="900" height="900" fill="transparent"/>
  <g class="mp-layer mp-neighbours"/>
  <g class="mp-layer mp-land">
    <path class="mp-country" data-iso="NO" data-name="Norway" d="M552.6,55.8L541.5,70L535.3,74.2L533.8,56.4L520.4,50L509.9,61.7L510.3,80.5L504.6,93.2L493.9,89.5L482.7,93.2L470.5,82.2L466.5,89.7L461.2,91.6L462.7,107.9L445.2,106.6L444.7,120.6L435.8,121.7L431.8,139.9L425.1,168L412.6,203.6L417,211.6L414.1,221.5L403.6,221.8L398.1,244.9L400.6,276.8L408.6,288.6L406.6,317L397.5,333.9L392.7,348L383.9,333.6L360.1,361.8L343.3,367.3L326.2,354.8L322.7,329L321.1,273.5L332,258.3L361.1,238.2L381.5,212.8L398.5,177.9L417.9,128.8L431.2,108.6L450.9,74.3L467.5,60.3L481.4,58.8L489.2,35.7L504,33.1L516.8,24.3L547,34.1L538.8,43.9Z" fill="#D8D8D2" stroke="#FFFFFF" stroke-width="0.5" stroke-linejoin="round">
      <title>Norway</title>
    </path>
    <path class="mp-country" data-iso="FR" data-name="France" d="M327.6,572.3L334.8,578.8L357.2,583.3L349.3,599.6L347.2,616.7L342.7,620.7L335.4,618.4L335.8,624.5L323.6,637.7L323,648.6L331,645L336.5,655.6L335.8,662.4L340.6,671.5L334.6,678.7L338.8,697.4L348.1,700.5L346.1,711L330,724.4L295.5,716.7L269.5,723.1L266.5,737.5L245.6,739.1L226.6,726.3L219.6,730.8L188.5,716.1L182.8,705.8L193.7,692.7L203,645.6L189.5,618.4L179.5,604.6L156.7,591.6L158.2,574.1L179.1,572.4L204.4,582.2L203.1,554.8L216.3,566.9L254,552.2L260.3,533.2L273.7,529.5L275.3,538L282.2,538.9L288.6,548.9L298.6,560.7L306.6,559.2L319.7,570.6L323.1,572.8ZM369.3,736.7L380.5,727.2L384,747.9L378.4,766.8L370.1,762L365.8,745.7Z" fill="#D8D8D2" stroke="#FFFFFF" stroke-width="0.5" stroke-linejoin="round">
      <title>France</title>
    </path>
    <path class="mp-country" data-iso="SE" data-name="Sweden" d="M392.7,348L397.5,333.9L406.6,317L408.6,288.6L400.6,276.8L398.1,244.9L403.6,221.8L414.1,221.5L417,211.6L412.6,203.6L425.1,168L431.8,139.9L435.8,121.7L444.7,120.6L445.2,106.6L462.7,107.9L461.2,91.6L466.5,89.7L480.5,99.3L498,112.9L506.5,149.8L511.8,158.4L496.5,168.7L490.1,187.4L494.5,201.7L481.3,223.8L463.6,247.6L460.1,282.4L470.6,298L483.7,309.5L476.6,337.9L464.6,345.1L464.7,385.5L459.9,408.5L443.7,407.9L437.8,427.4L422.3,429.7L416.5,407.6L404,381.2Z" fill="#D8D8D2" stroke="#FFFFFF" stroke-width="0.5" stroke-linejoin="round">
      <title>Sweden</title>
    </path>
    <path class="mp-country" data-iso="BY" data-name="Belarus" d="M619.4,374.9L634.6,376.6L638.2,381.6L644,376.8L658.3,378.1L663.1,388.3L662.3,395.3L675.5,407.3L682.3,409.6L683,413.9L693.3,414.7L699.3,419.3L695.8,426.1L684.7,429.1L682.8,432.1L688.6,438.5L696.9,451.7L685.5,457.1L682.9,463.5L685.7,475.2L679.4,474.9L666.9,480L661.6,475.8L657.5,481.4L651.1,479.6L639.8,482.4L622.4,481.2L607.6,483.1L596.6,486.4L590.3,494.5L583.6,496.9L580.9,486.7L574.2,476.8L581.6,470.2L579.6,461L573.7,453L570.9,442.8L584.1,440L596.7,427.6L596.5,413.9L605.4,403.6L601.4,393.7L608.2,387.6Z" fill="#D8D8D2" stroke="#FFFFFF" stroke-width="0.5" stroke-linejoin="round">
      <title>Belarus</title>
    </path>
    <path class="mp-country" data-iso="UA" data-name="Ukraine" d="M696.9,451.7L702.4,450.8L704.1,444.5L708.6,444.1L722,436.7L735.6,445.9L733.9,451.7L737.7,458.2L749.2,454.9L758,462.5L759.5,466.9L780.5,467.3L789.7,459.2L802.8,465.5L810.9,461.6L834.8,458.9L838,465.1L837.7,479.2L846.6,489.5L847.7,497.8L834.4,506L829.7,515.5L833.6,525.4L822.5,532.5L815.5,543.9L801.8,551.1L792,564.7L797.6,576.3L795,576.6L791.2,573L785.9,574.1L773,573.5L771,580.6L767.9,579L741.6,582L737.6,573.9L724.1,581.6L722.4,596.1L715.5,616.9L706.9,615.3L700.4,621.3L692,619.2L695.3,615.5L695.8,606.7L697.9,598.1L695.5,594.4L698.3,591.5L700.8,594.2L710.3,592L714,588.9L710.3,587.6L710.3,583.8L703,579.7L697.7,570.9L691,568.9L689.7,560.8L680.9,556.7L674.3,557.8L661.1,553.8L651.5,558.9L648.8,563.3L642.3,565.1L639.8,571.5L628.9,576.6L624.5,581.5L615.9,577.5L605.9,579.7L595.6,579.3L590,585.8L587.6,579.7L577.6,575.1L578.7,565.1L581.7,558.1L585.3,558.8L579.2,549.1L588.6,526.8L595.4,522.4L595.4,515.5L583.6,496.9L590.3,494.5L596.6,486.4L607.6,483.1L622.4,481.2L639.8,482.4L651.1,479.6L657.5,481.4L661.6,475.8L666.9,480L679.4,474.9L685.7,475.2L682.9,463.5L685.5,457.1Z" fill="#D8D8D2" stroke="#FFFFFF" stroke-width="0.5" stroke-linejoin="round">
      <title>Ukraine</title>
    </path>
    <path class="mp-country" data-iso="PL" data-name="Poland" d="M570.9,442.8L573.7,453L579.6,461L581.6,470.2L574.2,476.8L580.9,486.7L583.6,496.9L595.4,515.5L595.4,522.4L588.6,526.8L579.2,549.1L585.3,558.8L581.7,558.1L565.4,552.1L555,557.5L547.4,556.4L539.1,563L530,555.9L524.3,560.1L523.2,558.8L514.4,548.3L502.9,548.4L500.5,541.2L489.8,540L488.3,546.4L479.5,542.5L479.7,535.8L468.3,535.1L460.4,528.1L452.9,513.6L453.2,505.3L448.5,493L442.5,485L445.9,478.3L441.5,466.6L450.4,458.7L470.8,445.4L487,435.2L501.1,437.3L503,442.8L516.2,441L533.5,440.7L558.5,435.4L566,436.4Z" fill="#D8D8D2" stroke="#FFFFFF" stroke-width="0.5" stroke-linejoin="round">
      <title>Poland</title>
    </path>
    <path class="mp-country" data-iso="AT" data-name="Austria" d="M498.6,595.4L498.7,605.2L489.7,606.4L493.4,611.2L489.9,627.1L487.2,631.5L473,633.6L465.2,639.9L451.5,639.2L427.5,634.8L423.4,626.7L407.5,631.7L405.9,636.4L395.8,633.4L387.4,633L379.9,628.8L382.2,622.9L381.5,618.7L386.3,617.2L394.8,623.6L396.8,617.2L411.1,617.6L422.4,612.6L430.1,612.9L435.5,617.4L436.7,613.3L433.3,597.9L438.8,594.5L443.5,583.1L455.8,589.7L463.7,579.1L469,576.8L481.9,582.7L489.1,580.7L496.9,584.2L496,587.4Z" fill="#D8D8D2" stroke="#FFFFFF" stroke-width="0.5" stroke-linejoin="round">
      <title>Austria</title>
    </path>
    <path class="mp-country" data-iso="HU" data-name="Hungary" d="M577.6,575.1L587.6,579.7L590,585.8L581.3,592.7L577,610.1L570.3,627.9L558,634.7L547.6,635.4L536,643.7L530.3,648.2L516,645.6L502.3,637L496.8,634.7L492.6,627L489.9,627.1L493.4,611.2L489.7,606.4L498.7,605.2L498.6,595.4L507.5,600.4L513.7,602.2L526.6,597.3L527.2,592.4L533.3,590.7L540.4,585.8L542.3,587L549.2,582.8L551.9,576.6L556.7,574.2L574.7,578.2Z" fill="#D8D8D2" stroke="#FFFFFF" stroke-width="0.5" stroke-linejoin="round">
      <title>Hungary</title>
    </path>
    <path class="mp-country" data-iso="MD" data-name="Moldova" d="M648.8,563.3L651.5,558.9L661.1,553.8L674.3,557.8L680.9,556.7L689.7,560.8L691,568.9L697.7,570.9L703,579.7L710.3,583.8L710.3,587.6L714,588.9L710.3,592L700.8,594.2L698.3,591.5L695.5,594.4L697.9,598.1L695.8,606.7L695.3,615.5L692,619.2L686,609.5L684.8,599.2L681.4,589.2L668.4,578.1L660.7,569.8L654.1,564.3Z" fill="#D8D8D2" stroke="#FFFFFF" stroke-width="0.5" stroke-linejoin="round">
      <title>Moldova</title>
    </path>
    <path class="mp-country" data-iso="RO" data-name="Romania" d="M692,619.2L700.4,621.3L706.9,615.3L715.5,616.9L717.7,622.7L711.3,630.2L705.7,629.5L709.5,658.7L698.9,659.2L684.4,654.2L666.2,664.9L659.3,673L634.1,677.8L620.3,677.1L614.1,680.2L607.1,671.6L603.2,668.1L606.3,663.3L601.5,661.3L597.3,667.7L586.1,662.7L582.9,653.2L571.8,649.6L568.6,642.4L558,634.7L570.3,627.9L577,610.1L581.3,592.7L590,585.8L595.6,579.3L605.9,579.7L615.9,577.5L624.5,581.5L628.9,576.6L639.8,571.5L642.3,565.1L648.8,563.3L654.1,564.3L660.7,569.8L668.4,578.1L681.4,589.2L684.8,599.2L686,609.5Z" fill="#D8D8D2" stroke="#FFFFFF" stroke-width="0.5" stroke-linejoin="round">
      <title>Romania</title>
    </path>
    <path class="mp-country" data-iso="LT" data-name="Lithuania" d="M601.4,393.7L605.4,403.6L596.5,413.9L596.7,427.6L584.1,440L570.9,442.8L566,436.4L558.5,435.4L556.1,429.7L556.2,423L549.5,420.5L534.7,419.2L528.2,400.1L541.7,390L563.7,386.8L575.8,381.5L578.8,385.9L586,385.7Z" fill="#D8D8D2" stroke="#FFFFFF" stroke-width="0.5" stroke-linejoin="round">
      <title>Lithuania</title>
    </path>
    <path class="mp-country" data-iso="LV" data-name="Latvia" d="M599.7,348.1L607.2,351.7L611.5,362.6L619.4,374.9L608.2,387.6L601.4,393.7L586,385.7L578.8,385.9L575.8,381.5L563.7,386.8L541.7,390L528.2,400.1L525.4,382.3L528.8,366.4L539,356.1L552.8,371.4L562.8,368.6L561.1,350.2L570.6,343.6L576.7,345.1L589.5,350.9Z" fill="#D8D8D2" stroke="#FFFFFF" stroke-width="0.5" stroke-linejoin="round">
      <title>Latvia</title>
    </path>
    <path class="mp-country" data-iso="EE" data-name="Estonia" d="M595,299.8L597.9,303.3L593.3,319L603,339.4L599.7,348.1L589.5,350.9L576.7,345.1L570.6,343.6L561.1,350.2L559.2,336.2L555.4,340.2L545.8,333.6L541.8,320.4L555.4,310.5L569.4,303.4L583.1,303.8Z" fill="#D8D8D2" stroke="#FFFFFF" stroke-width="0.5" stroke-linejoin="round">
      <title>Estonia</title>
    </path>
    <path class="mp-country" data-iso="DE" data-name="Germany" d="M441.5,466.6L445.9,478.3L442.5,485L448.5,493L453.2,505.3L452.9,513.6L460.4,528.1L454,531.3L449.8,528.9L446.5,533.8L436,539.2L430.9,545.6L420.2,551.5L423.3,558.4L425.6,568.3L433.9,573.5L443.5,583.1L438.8,594.5L433.3,597.9L436.7,613.3L435.5,617.4L430.1,612.9L422.4,612.6L411.1,617.6L396.8,617.2L394.8,623.6L386.3,617.2L381.5,618.7L364.2,611.6L360.9,616.8L347.2,616.7L349.3,599.6L357.2,583.3L334.8,578.8L327.6,572.3L328.7,561.9L325.7,556.5L327.9,540.4L326,515.4L334.8,515.6L338.7,506.7L342.5,484.9L340,476.8L342.8,471.8L354.6,470.6L357.3,475.8L366.7,464L363.4,455.1L362.7,441.6L373.1,444.6L381.7,440.8L382.2,450L396.4,455L396.6,463.5L410.6,458.3L418,451.3L434.3,459.5Z" fill="#D8D8D2" stroke="#FFFFFF" stroke-width="0.5" stroke-linejoin="round">
      <title>Germany</title>
    </path>
    <path class="mp-country" data-iso="BG" data-name="Bulgaria" d="M607.1,671.6L614.1,680.2L620.3,677.1L634.1,677.8L659.3,673L666.2,664.9L684.4,654.2L698.9,659.2L709.5,658.7L703.6,670.9L702.2,689.3L711.5,701L695.7,702.1L680,714.2L682.8,726L667.3,732.3L652.9,727.1L640.2,736.8L626.8,739.1L622.2,723.6L611.8,717.9L614,713.9L611.5,711.5L612.9,703.4L617.8,694.6L607.3,686.1L604.1,677.8Z" fill="#D8D8D2" stroke="#FFFFFF" stroke-width="0.5" stroke-linejoin="round">
      <title>Bulgaria</title>
    </path>
    <path class="mp-country" data-iso="GR" data-name="Greece" d="M626.8,739.1L640.2,736.8L652.9,727.1L667.3,732.3L682.8,726L680,714.2L690.1,718.2L688.6,734.3L685.1,738.1L674,740.2L664.1,740.3L643.9,751.5L659.5,762L651.1,768L641,770.3L628.7,760.1L626.4,766.1L633.5,779.5L645.2,788.7L639.3,795.4L652.2,804.2L663,809.1L666.4,822.6L647.4,820.1L655.7,831.2L644.1,836.3L656,856.1L643.2,859.2L625.1,851.8L614.1,833.8L607.7,818.4L598.3,808.6L586.2,796.6L583.8,789.9L590.3,776.7L589.9,768.8L595.3,764.2L594.4,757.9L605.9,753.5L611.7,746.9L621.5,745.4L623.6,740.6Z" fill="#D8D8D2" stroke="#FFFFFF" stroke-width="0.5" stroke-linejoin="round">
      <title>Greece</title>
    </path>
    <path class="mp-country" data-iso="AL" data-name="Albania" d="M594.4,757.9L595.3,764.2L589.9,768.8L590.3,776.7L583.8,789.9L580.3,788.8L579.1,783.6L567.5,777.2L564.1,766L562.9,749.4L564.1,741.5L560.5,738.2L558.1,730.8L563.8,717.8L565.7,722.1L570.1,719.2L574.9,724.9L579.5,726.6L582.3,735L581.5,743.6L585.9,753.4Z" fill="#D8D8D2" stroke="#FFFFFF" stroke-width="0.5" stroke-linejoin="round">
      <title>Albania</title>
    </path>
    <path class="mp-country" data-iso="HR" data-name="Croatia" d="M496.8,634.7L502.3,637L516,645.6L530.3,648.2L536,643.7L541.4,652.2L547.8,658.2L542.8,668.1L534.4,664L522.8,666L507.8,664L500,665.5L497,671L490.3,666.2L487.8,676.5L497.5,686.7L502.1,693.7L511.1,701.7L518.4,706.1L526.4,715.2L543.2,722L541.9,726.4L524.1,719.9L512.8,712.6L496,707.4L479.6,691.3L482.8,689.1L474,679.9L472.9,671.8L461.6,669.1L457.4,679.9L451.7,672.3L451.4,663.9L452,663.5L463.7,663.3L466.4,659L472.5,662.3L479.1,662.1L478.3,655.4L483.9,652.4L484.4,642.6Z" fill="#D8D8D2" stroke="#FFFFFF" stroke-width="0.5" stroke-linejoin="round">
      <title>Croatia</title>
    </path>
    <path class="mp-country" data-iso="CH" data-name="Switzerland" d="M381.5,618.7L382.2,622.9L379.9,628.8L387.4,633L395.8,633.4L394.8,643.2L387.7,647.5L375.3,644.7L371.9,654.5L364,655.4L361.1,651.6L351.8,659.7L343.7,660.8L336.5,655.6L331,645L323,648.6L323.6,637.7L335.8,624.5L335.4,618.4L342.7,620.7L347.2,616.7L360.9,616.8L364.2,611.6Z" fill="#D8D8D2" stroke="#FFFFFF" stroke-width="0.5" stroke-linejoin="round">
      <title>Switzerland</title>
    </path>
    <path class="mp-country" data-iso="LU" data-name="Luxembourg" d="M325.7,556.5L328.7,561.9L327.6,572.3L323.1,572.8L319.7,570.6L321.8,557.2Z" fill="#D8D8D2" stroke="#FFFFFF" stroke-width="0.5" stroke-linejoin="round">
      <title>Luxembourg</title>
    </path>
    <path class="mp-country" data-iso="BE" data-name="Belgium" d="M327.9,540.4L325.7,556.5L321.8,557.2L319.7,570.6L306.6,559.2L298.6,560.7L288.6,548.9L282.2,538.9L275.3,538L273.7,529.5L285.9,525.6L296.7,528.2L310.7,523.9L319.8,534.6Z" fill="#D8D8D2" stroke="#FFFFFF" stroke-width="0.5" stroke-linejoin="round">
      <title>Belgium</title>
    </path>
    <path class="mp-country" data-iso="NL" data-name="Netherlands" d="M340,476.8L342.5,484.9L338.7,506.7L334.8,515.6L326,515.4L327.9,540.4L319.8,534.6L310.7,523.9L296.7,528.2L285.9,525.6L294,519.6L308.5,485.2L328.3,475.9Z" fill="#D8D8D2" stroke="#FFFFFF" stroke-width="0.5" stroke-linejoin="round">
      <title>Netherlands</title>
    </path>
    <path class="mp-country" data-iso="PT" data-name="Portugal" d="M51.2,718.8L59,714.3L66.9,712.6L68.7,725.1L79.1,727.4L82.7,725.1L92.9,728.1L95.4,741L85.8,745.8L81.7,764.3L78,767.2L74.9,778.4L66.5,778.6L70.8,794.6L62.2,809.2L67.2,817.7L63.2,823.7L54.2,831.2L54,839.5L44.9,844.1L35.5,838.4L25,838.7L32.4,820.6L34.1,805.5L26.3,801.2L24,791.1L29.3,775.9L38.8,769L42.4,759.8L49.6,746.4L51.6,736.3L50,727Z" fill="#D8D8D2" stroke="#FFFFFF" stroke-width="0.5" stroke-linejoin="round">
      <title>Portugal</title>
    </path>
    <path class="mp-country" data-iso="ES" data-name="Spain" d="M54,839.5L54.2,831.2L63.2,823.7L67.2,817.7L62.2,809.2L70.8,794.6L66.5,778.6L74.9,778.4L78,767.2L81.7,764.3L85.8,745.8L95.4,741L92.9,728.1L82.7,725.1L79.1,727.4L68.7,725.1L66.9,712.6L59,714.3L51.2,718.8L56.1,702.3L51.5,690.3L79.7,679.1L99.7,687.9L122.7,692.3L140.4,699.7L154.9,700.8L182.8,705.8L188.5,716.1L219.6,730.8L226.6,726.3L245.6,739.1L266.5,737.5L266.5,751.6L248.1,766.5L224.3,769.5L221.8,777.5L209,789.7L199.6,808.7L205.4,823.4L193.2,833L187.1,848.4L171.9,851.5L155.4,868.4L130.5,865L111.9,861.4L98.1,867.9L88.9,875.7L79.6,871.8L73.9,862.2L71.2,847.1Z" fill="#D8D8D2" stroke="#FFFFFF" stroke-width="0.5" stroke-linejoin="round">
      <title>Spain</title>
    </path>
    <path class="mp-country" data-iso="IE" data-name="Ireland" d="M157.5,448.3L156.5,465.4L141.6,484.1L113.1,492.2L93.7,483.8L111.2,462.5L109.8,437.2L132.6,423.5L145.1,415L145.1,428L139.6,439.9L148.1,441.4Z" fill="#D8D8D2" stroke="#FFFFFF" stroke-width="0.5" stroke-linejoin="round">
      <title>Ireland</title>
    </path>
    <path class="mp-country" data-iso="IT" data-name="Italy" d="M395.8,633.4L405.9,636.4L407.5,631.7L423.4,626.7L427.5,634.8L451.5,639.2L450.6,651.2L455.5,661L441.9,658.6L428.9,668L430.5,679.9L428.9,686.8L435.3,698.7L452.5,709.7L463,728.8L484.6,746.4L498.6,744.7L503.6,749.5L499.1,754.9L516.4,761.7L530.7,767.3L548.2,777.6L550.8,781.8L548.6,791L536.7,781.2L520.1,779.3L514.3,796L528.9,803.2L528.4,816.2L520.6,818.7L512.9,840.8L505.1,843.6L504.4,836.1L506.8,822.6L510.3,816.9L501.4,803.7L494.4,792L486.4,789.8L479.9,779.8L467.6,776.5L458.9,767.4L445.3,766.9L430.4,756.9L413.1,742L400.4,728.6L394.1,704.9L385.4,702.3L371.2,694.7L363.3,698L353.3,709.2L346.1,711L348.1,700.5L338.8,697.4L334.6,678.7L340.6,671.5L335.8,662.4L336.5,655.6L343.7,660.8L351.8,659.7L361.1,651.6L364,655.4L371.9,654.5L375.3,644.7L387.7,647.5L394.8,643.2Z" fill="#D8D8D2" stroke="#FFFFFF" stroke-width="0.5" stroke-linejoin="round">
      <title>Italy</title>
    </path>
    <path class="mp-country" data-iso="DK" data-name="Denmark" d="M381.7,440.8L373.1,444.6L362.7,441.6L357.1,428.5L356.6,404.1L358.7,397.7L362.4,390.5L373.8,388.8L378.2,382.1L388.2,375.1L388.2,387.4L384.7,395.2L386.5,401.9L393.8,405.2L390.9,414.3L386.8,411.9L377.7,429.3Z" fill="#D8D8D2" stroke="#FFFFFF" stroke-width="0.5" stroke-linejoin="round">
      <title>Denmark</title>
    </path>
    <path class="mp-country" data-iso="GB" data-name="United Kingdom" d="M198.7,466.8L198.8,466.8L202.9,453.5L196,437.6L195.8,437.2L180.1,430.3L178,423.3L184.8,413.7L181.6,406.5L172.4,416.2L175.9,393.5L171.7,380.3L181.1,357L194.3,339.8L203.8,343.4L218.9,343.8L201.5,367.2L214.9,366L228.7,368.2L222.6,386.9L207.8,406.3L221.2,409.9L221.9,412.5L230.2,441.9L239.1,446.9L244.6,474.8L247.7,484.6L264.6,490.7L261.5,505.8L253.4,512L258.2,524.8L243.5,536L223.6,533.5L197.2,536.5L190.9,530.9L179.3,540.3L165.8,535.3L153.6,542.4L146.5,536.2L172.8,515.5L186.8,512.6L186.7,512.6L164.5,504.8L162.1,494.7L178.5,490.2L172.9,476.1L178.3,461.2Z" fill="#D8D8D2" stroke="#FFFFFF" stroke-width="0.5" stroke-linejoin="round">
      <title>United Kingdom</title>
    </path>
    <path class="mp-country" data-iso="IS" data-name="Iceland" d="M138.2,131.1L131.1,145.4L136.9,164.7L118.4,178.3L84,183.8L73.7,184.5L61.9,175.9L37.6,157L51.5,151.5L35.8,131.2L54.4,134.6L56.9,127.9L40,113.8L53,102.3L68.1,105.3L75.6,126.6L94.7,120.1L103.8,131L123.3,124.2Z" fill="#D8D8D2" stroke="#FFFFFF" stroke-width="0.5" stroke-linejoin="round">
      <title>Iceland</title>
    </path>
    <path class="mp-country" data-iso="SI" data-name="Slovenia" d="M451.5,639.2L465.2,639.9L473,633.6L487.2,631.5L489.9,627.1L492.6,627L496.8,634.7L484.4,642.6L483.9,652.4L478.3,655.4L479.1,662.1L472.5,662.3L466.4,659L463.7,663.3L452,663.5L455.5,661L450.6,651.2Z" fill="#D8D8D2" stroke="#FFFFFF" stroke-width="0.5" stroke-linejoin="round">
      <title>Slovenia</title>
    </path>
    <path class="mp-country" data-iso="FI" data-name="Finland" d="M535.3,74.2L539,91.3L557.4,102.8L554.6,123.2L573.9,146.3L573.7,168.3L588.2,182.7L588.9,199.1L609.4,209.7L609.4,222.7L603.9,239.2L589.2,275.8L569,283.4L550.8,297L532.9,306.2L523.4,294.8L510.7,289.4L508.8,265.6L499.3,245.3L501.8,230.4L508.5,213.6L526.2,182.7L531.6,176.1L528.1,166.3L511.8,158.4L506.5,149.8L498,112.9L480.5,99.3L466.5,89.7L470.5,82.2L482.7,93.2L493.9,89.5L504.6,93.2L510.3,80.5L509.9,61.7L520.4,50L533.8,56.4Z" fill="#D8D8D2" stroke="#FFFFFF" stroke-width="0.5" stroke-linejoin="round">
      <title>Finland</title>
    </path>
    <path class="mp-country" data-iso="SK" data-name="Slovakia" d="M581.7,558.1L578.7,565.1L577.6,575.1L574.7,578.2L556.7,574.2L551.9,576.6L549.2,582.8L542.3,587L540.4,585.8L533.3,590.7L527.2,592.4L526.6,597.3L513.7,602.2L507.5,600.4L498.6,595.4L496,587.4L496.9,584.2L498.4,578.7L505.4,578.2L510.4,575L510.4,572.8L513.3,571.2L513.5,565.7L516.9,564.1L518.7,559.6L523.2,558.8L524.3,560.1L530,555.9L539.1,563L547.4,556.4L555,557.5L565.4,552.1Z" fill="#D8D8D2" stroke="#FFFFFF" stroke-width="0.5" stroke-linejoin="round">
      <title>Slovakia</title>
    </path>
    <path class="mp-country" data-iso="CZ" data-name="Czechia" d="M460.4,528.1L468.3,535.1L479.7,535.8L479.5,542.5L488.3,546.4L489.8,540L500.5,541.2L502.9,548.4L514.4,548.3L523.2,558.8L518.7,559.6L516.9,564.1L513.5,565.7L513.3,571.2L510.4,572.8L510.4,575L505.4,578.2L498.4,578.7L496.9,584.2L489.1,580.7L481.9,582.7L469,576.8L463.7,579.1L455.8,589.7L443.5,583.1L433.9,573.5L425.6,568.3L423.3,558.4L420.2,551.5L430.9,545.6L436,539.2L446.5,533.8L449.8,528.9L454,531.3Z" fill="#D8D8D2" stroke="#FFFFFF" stroke-width="0.5" stroke-linejoin="round">
      <title>Czechia</title>
    </path>
    <path class="mp-country" data-iso="CY" data-name="Cyprus" d="M850.3,833L854.3,833L858.7,829L862.5,827.9L864.5,828.8L865.7,831.1L866.3,829.8L869.4,829.2L872.3,826L874.7,826.1L876,827.8L859.9,844.7L849.3,845L841.5,837.2Z" fill="#D8D8D2" stroke="#FFFFFF" stroke-width="0.5" stroke-linejoin="round">
      <title>Cyprus</title>
    </path>
    <path class="mp-country" data-iso="BA" data-name="Bosnia and Herz." d="M543.2,722L526.4,715.2L518.4,706.1L511.1,701.7L502.1,693.7L497.5,686.7L487.8,676.5L490.3,666.2L497,671L500,665.5L507.8,664L522.8,666L534.4,664L542.8,668.1L548.8,667.1L546.3,678.2L556,686L555.3,697.6L551.5,699.4L548.6,702L543.8,708.5Z" fill="#D8D8D2" stroke="#FFFFFF" stroke-width="0.5" stroke-linejoin="round">
      <title>Bosnia and Herz.</title>
    </path>
    <path class="mp-country" data-iso="MK" data-name="Macedonia" d="M611.8,717.9L622.2,723.6L626.8,739.1L623.6,740.6L621.5,745.4L611.7,746.9L605.9,753.5L594.4,757.9L585.9,753.4L581.5,743.6L582.3,735L584.6,734.8L584.5,729.8L594.3,724.2L598,722.5L603.8,719.9Z" fill="#D8D8D2" stroke="#FFFFFF" stroke-width="0.5" stroke-linejoin="round">
      <title>Macedonia</title>
    </path>
    <path class="mp-country" data-iso="RS" data-name="Serbia" d="M536,643.7L547.6,635.4L558,634.7L568.6,642.4L571.8,649.6L582.9,653.2L586.1,662.7L597.3,667.7L601.5,661.3L606.3,663.3L603.2,668.1L607.1,671.6L604.1,677.8L607.3,686.1L617.8,694.6L612.9,703.4L611.5,711.5L614,713.9L611.8,717.9L603.8,719.9L598,722.5L597.1,720.8L598.6,717.6L599.5,711.4L597,712L592.8,708.3L589.7,707.7L586.7,704.3L583.2,703.5L580.1,700.6L577.2,702.5L576.3,710.8L572.4,713.3L573.4,711L565.9,707.2L559.8,705.6L556.8,702.7L551.5,699.4L555.3,697.6L556,686L546.3,678.2L548.8,667.1L542.8,668.1L547.8,658.2L541.4,652.2Z" fill="#D8D8D2" stroke="#FFFFFF" stroke-width="0.5" stroke-linejoin="round">
      <title>Serbia</title>
    </path>
    <path class="mp-country" data-iso="ME" data-name="Montenegro" d="M570.1,719.2L565.7,722.1L563.8,717.8L558.1,730.8L560.5,738.2L556.5,737L550.2,730L541.9,726.4L543.2,722L543.8,708.5L548.6,702L551.5,699.4L556.8,702.7L559.8,705.6L565.9,707.2L573.4,711L572.4,713.3Z" fill="#D8D8D2" stroke="#FFFFFF" stroke-width="0.5" stroke-linejoin="round">
      <title>Montenegro</title>
    </path>
    <path class="mp-country" data-iso="XK" data-name="Kosovo" d="M582.3,735L579.5,726.6L574.9,724.9L570.1,719.2L572.4,713.3L576.3,710.8L577.2,702.5L580.1,700.6L583.2,703.5L586.7,704.3L589.7,707.7L592.8,708.3L597,712L599.5,711.4L598.6,717.6L597.1,720.8L598,722.5L594.3,724.2L584.5,729.8L584.6,734.8Z" fill="#D8D8D2" stroke="#FFFFFF" stroke-width="0.5" stroke-linejoin="round">
      <title>Kosovo</title>
    </path>
  </g>
  <g class="mp-layer mp-hydro"/>
  <g class="mp-layer mp-borders" fill="none">
    <path class="mp-border" data-kind="intl" d="M535.3,74.2L533.8,56.4L520.4,50L509.9,61.7L510.3,80.5L504.6,93.2L493.9,89.5L482.7,93.2L470.5,82.2L466.5,89.7L461.2,91.6L462.7,107.9L445.2,106.6L444.7,120.6L435.8,121.7L431.8,139.9L425.1,168L412.6,203.6L417,211.6L414.1,221.5L403.6,221.8L398.1,244.9L400.6,276.8L408.6,288.6L406.6,317L397.5,333.9L392.7,348M273.7,529.5L275.3,538L282.2,538.9L288.6,548.9L298.6,560.7L306.6,559.2L319.7,570.6L323.1,572.8L327.6,572.3L334.8,578.8L357.2,583.3L349.3,599.6L347.2,616.7L342.7,620.7L335.4,618.4L335.8,624.5L323.6,637.7L323,648.6L331,645L336.5,655.6L335.8,662.4L340.6,671.5L334.6,678.7L338.8,697.4L348.1,700.5L346.1,711M266.5,737.5L245.6,739.1L226.6,726.3L219.6,730.8L188.5,716.1L182.8,705.8M466.5,89.7L480.5,99.3L498,112.9L506.5,149.8L511.8,158.4M696.9,451.7L685.5,457.1L682.9,463.5L685.7,475.2L679.4,474.9L666.9,480L661.6,475.8L657.5,481.4L651.1,479.6L639.8,482.4L622.4,481.2L607.6,483.1L596.6,486.4L590.3,494.5L583.6,496.9L580.9,486.7L574.2,476.8L581.6,470.2L579.6,461L573.7,453L570.9,442.8L584.1,440L596.7,427.6L596.5,413.9L605.4,403.6L601.4,393.7L608.2,387.6L619.4,374.9M715.5,616.9L706.9,615.3L700.4,621.3L692,619.2L695.3,615.5L695.8,606.7L697.9,598.1L695.5,594.4L698.3,591.5L700.8,594.2L710.3,592L714,588.9L710.3,587.6L710.3,583.8L703,579.7L697.7,570.9L691,568.9L689.7,560.8L680.9,556.7L674.3,557.8L661.1,553.8L651.5,558.9L648.8,563.3L642.3,565.1L639.8,571.5L628.9,576.6L624.5,581.5L615.9,577.5L605.9,579.7L595.6,579.3L590,585.8L587.6,579.7L577.6,575.1L578.7,565.1L581.7,558.1L585.3,558.8L579.2,549.1L588.6,526.8L595.4,522.4L595.4,515.5L583.6,496.9M581.7,558.1L565.4,552.1L555,557.5L547.4,556.4L539.1,563L530,555.9L524.3,560.1L523.2,558.8L514.4,548.3L502.9,548.4L500.5,541.2L489.8,540L488.3,546.4L479.5,542.5L479.7,535.8L468.3,535.1L460.4,528.1L452.9,513.6L453.2,505.3L448.5,493L442.5,485L445.9,478.3L441.5,466.6M558.5,435.4L566,436.4L570.9,442.8M590,585.8L581.3,592.7L577,610.1L570.3,627.9L558,634.7L547.6,635.4L536,643.7L530.3,648.2L516,645.6L502.3,637L496.8,634.7L492.6,627L489.9,627.1M498.6,595.4L498.7,605.2L489.7,606.4L493.4,611.2L489.9,627.1L487.2,631.5L473,633.6L465.2,639.9L451.5,639.2L427.5,634.8L423.4,626.7L407.5,631.7L405.9,636.4L395.8,633.4L387.4,633L379.9,628.8L382.2,622.9L381.5,618.7L386.3,617.2L394.8,623.6L396.8,617.2L411.1,617.6L422.4,612.6L430.1,612.9L435.5,617.4L436.7,613.3L433.3,597.9L438.8,594.5L443.5,583.1L455.8,589.7L463.7,579.1L469,576.8L481.9,582.7L489.1,580.7L496.9,584.2L496,587.4L498.6,595.4L507.5,600.4L513.7,602.2L526.6,597.3L527.2,592.4L533.3,590.7L540.4,585.8L542.3,587L549.2,582.8L551.9,576.6L556.7,574.2L574.7,578.2L577.6,575.1M692,619.2L686,609.5L684.8,599.2L681.4,589.2L668.4,578.1L660.7,569.8L654.1,564.3L648.8,563.3M709.5,658.7L698.9,659.2L684.4,654.2L666.2,664.9L659.3,673L634.1,677.8L620.3,677.1L614.1,680.2L607.1,671.6L603.2,668.1L606.3,663.3L601.5,661.3L597.3,667.7L586.1,662.7L582.9,653.2L571.8,649.6L568.6,642.4L558,634.7M528.2,400.1L541.7,390L563.7,386.8L575.8,381.5L578.8,385.9L586,385.7L601.4,393.7M561.1,350.2L570.6,343.6L576.7,345.1L589.5,350.9L599.7,348.1M460.4,528.1L454,531.3L449.8,528.9L446.5,533.8L436,539.2L430.9,545.6L420.2,551.5L423.3,558.4L425.6,568.3L433.9,573.5L443.5,583.1M381.5,618.7L364.2,611.6L360.9,616.8L347.2,616.7M327.6,572.3L328.7,561.9L325.7,556.5L327.9,540.4L326,515.4L334.8,515.6L338.7,506.7L342.5,484.9L340,476.8M362.7,441.6L373.1,444.6L381.7,440.8M680,714.2L682.8,726L667.3,732.3L652.9,727.1L640.2,736.8L626.8,739.1L622.2,723.6L611.8,717.9L614,713.9L611.5,711.5L612.9,703.4L617.8,694.6L607.3,686.1L604.1,677.8L607.1,671.6M583.8,789.9L590.3,776.7L589.9,768.8L595.3,764.2L594.4,757.9L605.9,753.5L611.7,746.9L621.5,745.4L623.6,740.6L626.8,739.1M560.5,738.2L558.1,730.8L563.8,717.8L565.7,722.1L570.1,719.2L574.9,724.9L579.5,726.6L582.3,735L581.5,743.6L585.9,753.4L594.4,757.9M536,643.7L541.4,652.2L547.8,658.2L542.8,668.1L534.4,664L522.8,666L507.8,664L500,665.5L497,671L490.3,666.2L487.8,676.5L497.5,686.7L502.1,693.7L511.1,701.7L518.4,706.1L526.4,715.2L543.2,722L541.9,726.4M452,663.5L463.7,663.3L466.4,659L472.5,662.3L479.1,662.1L478.3,655.4L483.9,652.4L484.4,642.6L496.8,634.7M395.8,633.4L394.8,643.2L387.7,647.5L375.3,644.7L371.9,654.5L364,655.4L361.1,651.6L351.8,659.7L343.7,660.8L336.5,655.6M319.7,570.6L321.8,557.2L325.7,556.5M285.9,525.6L296.7,528.2L310.7,523.9L319.8,534.6L327.9,540.4M51.2,718.8L59,714.3L66.9,712.6L68.7,725.1L79.1,727.4L82.7,725.1L92.9,728.1L95.4,741L85.8,745.8L81.7,764.3L78,767.2L74.9,778.4L66.5,778.6L70.8,794.6L62.2,809.2L67.2,817.7L63.2,823.7L54.2,831.2L54,839.5M145.1,415L145.1,428L139.6,439.9L148.1,441.4L157.5,448.3M451.5,639.2L450.6,651.2L455.5,661M496.9,584.2L498.4,578.7L505.4,578.2L510.4,575L510.4,572.8L513.3,571.2L513.5,565.7L516.9,564.1L518.7,559.6L523.2,558.8M542.8,668.1L548.8,667.1L546.3,678.2L556,686L555.3,697.6L551.5,699.4L548.6,702L543.8,708.5L543.2,722M582.3,735L584.6,734.8L584.5,729.8L594.3,724.2L598,722.5L603.8,719.9L611.8,717.9M598,722.5L597.1,720.8L598.6,717.6L599.5,711.4L597,712L592.8,708.3L589.7,707.7L586.7,704.3L583.2,703.5L580.1,700.6L577.2,702.5L576.3,710.8L572.4,713.3L573.4,711L565.9,707.2L559.8,705.6L556.8,702.7L551.5,699.4M572.4,713.3L570.1,719.2" fill="none" stroke="#94948C" stroke-width="0.75" stroke-linejoin="round" stroke-linecap="round"/>
  </g>
  <g class="mp-layer mp-roads"/>
  <g class="mp-layer mp-places"/>
  <g class="mp-layer mp-labels"/>
  <g class="mp-layer mp-annotations"/>
  <g class="mp-layer mp-furniture"/>
</svg>