<svg xmlns="http://www.w3.org/2000/svg" viewBox="0 0 900 900" width="900" height="900" preserveAspectRatio="xMidYMid meet" class="mp mp-t-0ri34yx" role="img" aria-label="The European Union and its candidate countries">
  <title>The European Union and its candidate countries</title>
  <style>
    .mp.mp-t-0ri34yx {
      --bg: #A8C0CC;
      --land: #F2EAD8;
      --land-edge: #C9BFA6;
      --land-edge-width: 0.8;
      --border: #6E6152;
      --border-width: 1.4;
      --border-dash: 5 2.5;
      --accent: #8C3B4A;
      --accent-edge: #F2EAD8;
      --bin-1: #F7EFDC;
      --bin-2: #E4CDA2;
      --bin-3: #C9A468;
      --bin-4: #A2733C;
      --bin-5: #6E4520;
      --fill-1: #EDDBA6;
      --fill-2: #C2D6AE;
      --fill-3: #E0B0A0;
      --fill-4: #C6BCDC;
      --fill-5: #DED2BE;
      --fill-6: #93BFA8;
      --prism-side: #382A16;
      --accent-side: #5E2731;
      --place: #3A342A;
      --ink: #3A342A;
      --ink-muted: #7A7263;
      --font: ui-serif, Georgia, "Times New Roman", serif;
      --label-size: 13;
      --stripe: #6E6152;
      --stripe-width: 1.8;
      --water: #7FA0B4;
      --water-width: 1.1;
      --road: #B5462F;
      --neighbour: #E6DEC9;
      --anno: #8C3B4A;
      --anno-ink: #F2EAD8;
      --furniture-ink: #7A7263;
    }
    .mp.mp-t-0ri34yx .mp-bg {
      fill: var(--bg);
    }
    .mp.mp-t-0ri34yx .mp-neighbour {
      fill: var(--neighbour);
      stroke: none;
    }
    .mp.mp-t-0ri34yx .mp-country {
      fill: var(--land);
      stroke: var(--land-edge);
      stroke-width: var(--land-edge-width);
      stroke-linejoin: round;
    }
    .mp.mp-t-0ri34yx .mp-country[data-bin="1"] {
      fill: var(--bin-1);
    }
    .mp.mp-t-0ri34yx .mp-country[data-bin="2"] {
      fill: var(--bin-2);
    }
    .mp.mp-t-0ri34yx .mp-country[data-bin="3"] {
      fill: var(--bin-3);
    }
    .mp.mp-t-0ri34yx .mp-country[data-bin="4"] {
      fill: var(--bin-4);
    }
    .mp.mp-t-0ri34yx .mp-country[data-bin="5"] {
      fill: var(--bin-5);
    }
    .mp.mp-t-0ri34yx .mp-country[data-fill="1"] {
      fill: var(--fill-1);
    }
    .mp.mp-t-0ri34yx .mp-country[data-fill="2"] {
      fill: var(--fill-2);
    }
    .mp.mp-t-0ri34yx .mp-country[data-fill="3"] {
      fill: var(--fill-3);
    }
    .mp.mp-t-0ri34yx .mp-country[data-fill="4"] {
      fill: var(--fill-4);
    }
    .mp.mp-t-0ri34yx .mp-country[data-fill="5"] {
      fill: var(--fill-5);
    }
    .mp.mp-t-0ri34yx .mp-country[data-fill="6"] {
      fill: var(--fill-6);
    }
    .mp.mp-t-0ri34yx .mp-country.is-highlighted {
      fill: var(--accent);
      stroke: var(--accent-edge);
    }
    .mp.mp-t-0ri34yx .mp-water[data-kind="lake"] {
      fill: var(--water);
      stroke: none;
    }
    .mp.mp-t-0ri34yx .mp-water[data-kind="river"] {
      fill: none;
      stroke: var(--water);
      stroke-width: var(--water-width);
      stroke-linecap: round;
      stroke-linejoin: round;
    }
    .mp.mp-t-0ri34yx .mp-border {
      fill: none;
      stroke: var(--border);
      stroke-width: var(--border-width);
      stroke-dasharray: var(--border-dash);
      stroke-linejoin: round;
      stroke-linecap: round;
    }
    .mp.mp-t-0ri34yx .mp-road {
      fill: none;
      stroke: var(--road);
    }
    .mp.mp-t-0ri34yx .mp-place {
      fill: var(--place);
      stroke: none;
    }
    .mp.mp-t-0ri34yx .mp-prism-top {
      fill: var(--land);
      stroke: var(--land-edge);
      stroke-width: var(--land-edge-width);
    }
    .mp.mp-t-0ri34yx .mp-prism-side {
      fill: var(--prism-side);
      stroke: none;
    }
    .mp.mp-t-0ri34yx .mp-prism-edge {
      fill: none;
      stroke: var(--border);
      stroke-width: var(--border-width);
      stroke-dasharray: var(--border-dash);
    }
    .mp.mp-t-0ri34yx .mp-prism[data-bin="1"] .mp-prism-top {
      fill: var(--bin-1);
    }
    .mp.mp-t-0ri34yx .mp-prism[data-bin="2"] .mp-prism-top {
      fill: var(--bin-2);
    }
    .mp.mp-t-0ri34yx .mp-prism[data-bin="3"] .mp-prism-top {
      fill: var(--bin-3);
    }
    .mp.mp-t-0ri34yx .mp-prism[data-bin="4"] .mp-prism-top {
      fill: var(--bin-4);
    }
    .mp.mp-t-0ri34yx .mp-prism[data-bin="5"] .mp-prism-top {
      fill: var(--bin-5);
    }
    .mp.mp-t-0ri34yx .mp-prism[data-fill="1"] .mp-prism-top {
      fill: var(--fill-1);
    }
    .mp.mp-t-0ri34yx .mp-prism[data-fill="2"] .mp-prism-top {
      fill: var(--fill-2);
    }
    .mp.mp-t-0ri34yx .mp-prism[data-fill="3"] .mp-prism-top {
      fill: var(--fill-3);
    }
    .mp.mp-t-0ri34yx .mp-prism[data-fill="4"] .mp-prism-top {
      fill: var(--fill-4);
    }
    .mp.mp-t-0ri34yx .mp-prism[data-fill="5"] .mp-prism-top {
      fill: var(--fill-5);
    }
    .mp.mp-t-0ri34yx .mp-prism[data-fill="6"] .mp-prism-top {
      fill: var(--fill-6);
    }
    .mp.mp-t-0ri34yx .mp-prism.is-highlighted .mp-prism-top {
      fill: var(--accent);
    }
    .mp.mp-t-0ri34yx .mp-prism.is-highlighted .mp-prism-side {
      fill: var(--accent-side);
    }
    .mp.mp-t-0ri34yx .mp-hatch {
      fill: url(#mp-stripe);
      stroke: none;
    }
    .mp.mp-t-0ri34yx .mp-hatch-line {
      fill: none;
      stroke: var(--stripe);
      stroke-width: var(--stripe-width);
    }
    .mp.mp-t-0ri34yx .mp-label {
      fill: var(--ink);
      font-family: var(--font);
      font-size: var(--label-size);
    }
    @media (prefers-color-scheme: dark) {
      .mp.mp-t-0ri34yx {
        --bg: #101D26;
        --land: #2C2A24;
        --land-edge: #4A4437;
        --border: #938872;
        --accent: #B4525F;
        --accent-edge: #101D26;
        --bin-1: #2E2A21;
        --bin-2: #453C2A;
        --bin-3: #5F5034;
        --bin-4: #7C673F;
        --bin-5: #A5874F;
        --fill-1: #4A4127;
        --fill-2: #33422F;
        --fill-3: #4C332C;
        --fill-4: #2B3E4B;
        --fill-5: #40334A;
        --fill-6: #4E3F25;
        --prism-side: #15140F;
        --accent-side: #7A3742;
        --place: #E8E0CC;
        --ink: #E8E0CC;
        --ink-muted: #948B78;
        --stripe: #A2977F;
        --water: #3E6C86;
        --neighbour: #1B2A33;
        --anno: #B4525F;
        --anno-ink: #101D26;
        --furniture-ink: #948B78;
      }
    }
  </style>
  <defs class="mp-defs">
    <clipPath id="mp-land-clip">
      <path d="M390.7,-176.3L391.5,-185.9L398.5,-187.6L405.8,-178.9L425.8,-161.6L414.5,-148.7L414.5,-128.6L410.3,-122.9L410.4,-100.7L403.3,-98.8L389,-113.7L393.4,-123.6L384.3,-130.6L372.4,-152.7L367.5,-174L380.3,-184.7L383.7,-175.2ZM551.6,55.2L540.5,69.2L534.4,73.4L532.9,55.8L519.7,49.4L509.2,61L509.6,79.6L504.1,92.2L493.4,88.6L482.4,92.2L470.3,81.3L466.3,88.7L461.1,90.6L462.5,106.8L445.2,105.5L444.7,119.3L436,120.4L432,138.4L425.4,166.2L413,201.4L417.4,209.3L414.5,219.1L404.1,219.4L398.6,242.3L401.1,273.9L409.1,285.5L407,313.6L398,330.3L393.4,344.2L384.6,330L361.1,357.9L344.4,363.4L327.5,351L324.1,325.4L322.5,270.5L333.2,255.5L362,235.7L382.2,210.5L399,176L418.2,127.4L431.4,107.4L450.9,73.5L467.3,59.6L481.1,58.1L488.8,35.3L503.4,32.7L516,24L546,33.7L537.8,43.4ZM447.4,-197.8L444.2,-181.5L430.8,-175L415.4,-176.6L413.2,-184L406.2,-183.4L399.3,-195.3L412.2,-205.2L420.1,-199.9L423,-209L435.9,-204.8ZM449,-136.1L438.9,-122.6L427.8,-126.8L430.3,-134.3L425.5,-142.1L435.5,-149.6L439.8,-140.2ZM-1348.6,1014.8L-1383.5,1020.4L-1408.3,1029L-1426.1,1027.7L-1438.3,1017.2L-1434.2,1007.7L-1437.9,1001.2L-1451.4,999.2L-1455.4,983.8L-1439.4,981.3L-1426.1,973.8L-1411.7,969.2L-1405.1,947L-1389.9,931L-1358.4,925.9L-1354,936.4L-1344.5,958.9L-1342.3,1002ZM328.9,566.2L336,572.6L358.2,577.1L350.4,593.2L348.3,610.1L343.8,614.1L336.6,611.8L337,617.9L324.9,630.9L324.4,641.6L332.3,638.1L337.7,648.6L337,655.3L341.8,664.3L335.8,671.5L340,690L349.2,693.1L347.2,703.4L331.3,716.7L297.2,709.1L271.4,715.4L268.4,729.6L247.8,731.2L229,718.6L222.1,723L191.3,708.4L185.6,698.3L196.4,685.3L205.7,638.7L192.3,611.8L182.3,598.2L159.8,585.3L161.3,568L182,566.2L207,576L205.8,548.9L218.8,560.8L256,546.3L262.3,527.5L275.6,523.8L277.1,532.2L284,533.1L290.3,543L300.3,554.7L308.1,553.2L321.1,564.5L324.4,566.6ZM370.1,728.8L381.3,719.5L384.7,740L379.2,758.6L370.9,753.9L366.6,737.7ZM393.4,344.2L398,330.3L407,313.6L409.1,285.5L401.1,273.9L398.6,242.3L404.1,219.4L414.5,219.1L417.4,209.3L413,201.4L425.4,166.2L432,138.4L436,120.4L444.7,119.3L445.2,105.5L462.5,106.8L461.1,90.6L466.3,88.7L480.2,98.3L497.5,111.6L505.9,148.2L511.2,156.6L496,166.9L489.7,185.3L494,199.5L481,221.4L463.5,245L460,279.3L470.3,294.8L483.3,306.2L476.3,334.2L464.4,341.4L464.5,381.4L459.8,404.2L443.7,403.6L437.9,422.8L422.6,425.1L416.8,403.2L404.5,377.1ZM617.6,370.8L632.7,372.5L636.2,377.6L642,372.8L656.1,374.1L660.8,384.2L660.1,391.1L673.1,403L679.8,405.2L680.5,409.5L690.7,410.3L696.6,414.8L693.2,421.5L682.2,424.5L680.3,427.5L686.1,433.8L694.3,446.9L683,452.2L680.4,458.5L683.2,470.1L676.9,469.8L664.6,474.8L659.3,470.7L655.3,476.2L649,474.5L637.8,477.2L620.6,476.1L605.9,477.9L595.1,481.2L588.8,489.2L582.1,491.6L579.5,481.5L572.9,471.7L580.2,465.2L578.2,456L572.4,448.1L569.6,438.1L582.7,435.3L595.1,423.1L594.9,409.4L603.7,399.3L599.8,389.4L606.5,383.5ZM694.3,446.9L699.7,446L701.4,439.7L705.9,439.4L719.1,432L732.5,441.1L730.8,446.9L734.6,453.3L746,450L754.7,457.5L756.2,461.9L776.9,462.3L786.1,454.3L799.1,460.6L807.1,456.7L830.7,454L833.8,460.1L833.6,474L842.3,484.3L843.5,492.5L830.3,500.6L825.6,510L829.5,519.8L818.5,526.8L811.7,538.1L798.1,545.2L788.4,558.7L793.9,570.2L791.3,570.4L787.6,566.9L782.3,567.9L769.5,567.4L767.6,574.4L764.6,572.8L738.5,575.8L734.5,567.8L721.2,575.4L719.5,589.7L712.6,610.3L704.2,608.7L697.8,614.7L689.4,612.6L692.7,608.9L693.2,600.3L695.3,591.7L692.9,588L695.6,585.2L698.1,587.9L707.5,585.7L711.2,582.7L707.5,581.3L707.5,577.6L700.3,573.6L695.1,564.8L688.4,562.8L687.1,554.8L678.5,550.8L672,551.8L658.8,547.9L649.4,553L646.7,557.3L640.2,559L637.8,565.4L627,570.4L622.6,575.3L614.1,571.4L604.2,573.6L594.1,573.1L588.5,579.5L586.1,573.5L576.2,569L577.3,559L580.3,552.1L583.9,552.8L577.8,543.2L587.2,521.2L593.9,516.8L593.9,510L582.1,491.6L588.8,489.2L595.1,481.2L605.9,477.9L620.6,476.1L637.8,477.2L649,474.5L655.3,476.2L659.3,470.7L664.6,474.8L676.9,469.8L683.2,470.1L680.4,458.5L683,452.2ZM569.6,438.1L572.4,448.1L578.2,456L580.2,465.2L572.9,471.7L579.5,481.5L582.1,491.6L593.9,510L593.9,516.8L587.2,521.2L577.8,543.2L583.9,552.8L580.3,552.1L564.1,546.2L553.9,551.5L546.3,550.4L538.2,557L529.2,550L523.5,554.1L522.4,552.9L513.8,542.4L502.4,542.6L500,535.5L489.4,534.2L487.9,540.5L479.2,536.7L479.4,530.1L468.1,529.3L460.3,522.5L452.8,508.1L453.2,499.9L448.5,487.7L442.6,479.8L445.9,473.2L441.6,461.6L450.4,453.8L470.6,440.7L486.6,430.6L500.6,432.6L502.4,438.1L515.5,436.3L532.6,436L557.4,430.7L564.8,431.7ZM498.1,589L498.1,598.8L489.3,599.9L492.9,604.7L489.4,620.4L486.8,624.8L472.7,626.9L465.1,633L451.5,632.4L427.8,628L423.7,620L408,624.9L406.3,629.6L396.3,626.6L388,626.2L380.7,622.1L383,616.2L382.3,612.1L387,610.6L395.3,616.9L397.4,610.6L411.5,611L422.7,606.1L430.3,606.3L435.6,610.8L436.9,606.7L433.5,591.5L438.9,588.1L443.6,576.8L455.7,583.4L463.6,573L468.8,570.7L481.6,576.5L488.7,574.5L496.4,578L495.5,581.1ZM576.2,569L586.1,573.5L588.5,579.5L579.9,586.3L575.6,603.6L569,621.2L556.8,628L546.5,628.6L535.1,636.8L529.5,641.3L515.3,638.7L501.8,630.2L496.3,627.9L492.2,620.3L489.4,620.4L492.9,604.7L489.3,599.9L498.1,598.8L498.1,589L506.9,594L513.1,595.8L525.8,590.9L526.3,586.1L532.5,584.4L539.4,579.5L541.4,580.7L548.1,576.6L550.8,570.4L555.6,568.1L573.4,572ZM646.7,557.3L649.4,553L658.8,547.9L672,551.8L678.5,550.8L687.1,554.8L688.4,562.8L695.1,564.8L700.3,573.6L707.5,577.6L707.5,581.3L711.2,582.7L707.5,585.7L698.1,587.9L695.6,585.2L692.9,588L695.3,591.7L693.2,600.3L692.7,608.9L689.4,612.6L683.5,603L682.4,592.8L678.9,583L666.1,572L658.5,563.7L651.9,558.3ZM689.4,612.6L697.8,614.7L704.2,608.7L712.6,610.3L714.8,616.1L708.5,623.4L703,622.8L706.7,651.7L696.3,652.1L681.9,647.2L663.9,657.8L657.1,665.8L632.2,670.6L618.5,669.9L612.3,673L605.4,664.4L601.5,661L604.6,656.3L599.9,654.2L595.7,660.5L584.7,655.7L581.5,646.3L570.5,642.7L567.3,635.5L556.8,628L569,621.2L575.6,603.6L579.9,586.3L588.5,579.5L594.1,573.1L604.2,573.6L614.1,571.4L622.6,575.3L627,570.4L637.8,565.4L640.2,559L646.7,557.3L651.9,558.3L658.5,563.7L666.1,572L678.9,583L682.4,592.8L683.5,603ZM599.8,389.4L603.7,399.3L594.9,409.4L595.1,423.1L582.7,435.3L569.6,438.1L564.8,431.7L557.4,430.7L555,425.1L555.1,418.5L548.5,416L533.8,414.8L527.4,395.8L540.7,385.8L562.5,382.7L574.5,377.4L577.4,381.8L584.6,381.6ZM598.1,344.4L605.5,348L609.8,358.7L617.6,370.8L606.5,383.5L599.8,389.4L584.6,381.6L577.4,381.8L574.5,377.4L562.5,382.7L540.7,385.8L527.4,395.8L524.6,378.2L528,362.5L538.1,352.2L551.7,367.4L561.6,364.7L559.9,346.5L569.3,339.9L575.3,341.4L588,347.1ZM593.5,296.6L596.4,300L591.8,315.5L601.4,335.7L598.1,344.4L588,347.1L575.3,341.4L569.3,339.9L559.9,346.5L558.1,332.6L554.3,336.5L544.8,330.1L540.8,317L554.3,307.2L568.1,300.2L581.7,300.6ZM441.6,461.6L445.9,473.2L442.6,479.8L448.5,487.7L453.2,499.9L452.8,508.1L460.3,522.5L453.9,525.6L449.8,523.2L446.5,528.1L436.2,533.5L431.1,539.7L420.5,545.6L423.6,552.4L425.9,562.3L434.1,567.4L443.6,576.8L438.9,588.1L433.5,591.5L436.9,606.7L435.6,610.8L430.3,606.3L422.7,606.1L411.5,611L397.4,610.6L395.3,616.9L387,610.6L382.3,612.1L365.1,605.1L361.8,610.2L348.3,610.1L350.4,593.2L358.2,577.1L336,572.6L328.9,566.2L330,555.9L327.1,550.5L329.2,534.6L327.3,509.9L336.1,510.1L339.9,501.3L343.7,479.7L341.2,471.7L344,466.8L355.6,465.6L358.3,470.8L367.6,459.1L364.4,450.3L363.6,436.9L373.9,439.9L382.5,436.1L382.9,445.2L396.9,450.2L397.2,458.5L411,453.4L418.3,446.5L434.4,454.6ZM605.4,664.4L612.3,673L618.5,669.9L632.2,670.6L657.1,665.8L663.9,657.8L681.9,647.2L696.3,652.1L706.7,651.7L700.9,663.7L699.5,681.9L708.7,693.5L693.1,694.6L677.5,706.6L680.4,718.2L665,724.5L650.7,719.3L638.2,729L624.9,731.2L620.3,715.9L610.1,710.2L612.2,706.3L609.8,703.9L611.2,695.8L616.1,687.2L605.7,678.8L602.4,670.6ZM721,859.2L720.4,866.9L692.7,876L691.9,872L666.9,872.9L668.3,861.8L680.8,867.4L695.7,862.4L710.6,860.5L711.2,864.8ZM624.9,731.2L638.2,729L650.7,719.3L665,724.5L680.4,718.2L677.5,706.6L687.6,710.5L686.1,726.5L682.6,730.2L671.6,732.3L661.9,732.4L641.8,743.5L657.3,753.9L649,759.8L639,762.1L626.8,752L624.6,757.9L631.6,771.2L643.1,780.3L637.3,787L650,795.7L660.8,800.4L664.1,813.8L645.3,811.4L653.6,822.3L642.1,827.4L653.9,847L641.1,850L623.2,842.8L612.4,824.9L606,809.7L596.7,800L584.8,788.1L582.4,781.5L588.8,768.5L588.5,760.6L593.7,756.1L592.9,749.8L604.2,745.4L610,738.9L619.7,737.4L621.7,732.7ZM592.9,749.8L593.7,756.1L588.5,760.6L588.8,768.5L582.4,781.5L578.9,780.4L577.7,775.2L566.2,768.9L562.8,757.8L561.7,741.4L562.9,733.6L559.3,730.4L556.9,723L562.6,710.1L564.4,714.4L568.8,711.5L573.6,717.2L578.2,718.9L580.9,727.2L580.1,735.6L584.4,745.4ZM496.3,627.9L501.8,630.2L515.3,638.7L529.5,641.3L535.1,636.8L540.4,645.3L546.8,651.1L541.8,661L533.5,656.9L522,658.9L507.2,656.9L499.5,658.4L496.5,663.8L489.9,659L487.4,669.2L497,679.4L501.6,686.3L510.5,694.2L517.7,698.5L525.6,707.6L542.2,714.3L540.9,718.6L523.3,712.2L512.1,705L495.5,699.8L479.2,684L482.5,681.8L473.7,672.6L472.6,664.6L461.5,661.9L457.3,672.6L451.7,665.1L451.4,656.8L451.9,656.4L463.6,656.2L466.3,651.9L472.2,655.3L478.8,655L478,648.4L483.5,645.4L484.1,635.7ZM382.3,612.1L383,616.2L380.7,622.1L388,626.2L396.3,626.6L395.4,636.3L388.3,640.6L376.1,637.9L372.7,647.5L364.9,648.4L362,644.6L352.8,652.7L344.8,653.8L337.7,648.6L332.3,638.1L324.4,641.6L324.9,630.9L337,617.9L336.6,611.8L343.8,614.1L348.3,610.1L361.8,610.2L365.1,605.1ZM327.1,550.5L330,555.9L328.9,566.2L324.4,566.6L321.1,564.5L323.1,551.3ZM329.2,534.6L327.1,550.5L323.1,551.3L321.1,564.5L308.1,553.2L300.3,554.7L290.3,543L284,533.1L277.1,532.2L275.6,523.8L287.7,520L298.4,522.5L312.2,518.3L321.2,528.9ZM341.2,471.7L343.7,479.7L339.9,501.3L336.1,510.1L327.3,509.9L329.2,534.6L321.2,528.9L312.2,518.3L298.4,522.5L287.7,520L295.6,514L310,480L329.6,470.8ZM55.4,711.1L63.1,706.7L71,705L72.7,717.4L83,719.7L86.6,717.3L96.7,720.3L99.2,733.1L89.6,737.8L85.6,756.2L82,759L78.9,770.1L70.6,770.3L74.8,786.1L66.3,800.6L71.3,809L67.3,814.9L58.4,822.4L58.2,830.6L49.2,835.1L39.9,829.4L29.5,829.7L36.8,811.8L38.5,796.9L30.8,792.7L28.5,782.6L33.8,767.6L43.1,760.8L46.7,751.7L53.8,738.4L55.8,728.4L54.3,719.2ZM58.2,830.6L58.4,822.4L67.3,814.9L71.3,809L66.3,800.6L74.8,786.1L70.6,770.3L78.9,770.1L82,759L85.6,756.2L89.6,737.8L99.2,733.1L96.7,720.3L86.6,717.3L83,719.7L72.7,717.4L71,705L63.1,706.7L55.4,711.1L60.3,694.8L55.8,682.9L83.6,671.8L103.4,680.5L126.2,684.9L143.6,692.2L158,693.4L185.6,698.3L191.3,708.4L222.1,723L229,718.6L247.8,731.2L268.4,729.6L268.4,743.6L250.3,758.3L226.7,761.3L224.2,769.2L211.6,781.3L202.3,800L208,814.7L195.9,824.2L189.9,839.4L174.8,842.4L158.6,859.1L133.9,855.8L115.5,852.3L101.8,858.6L92.7,866.4L83.5,862.5L77.9,853L75.2,838.1ZM160.6,443.5L159.6,460.5L144.9,478.9L116.7,487L97.5,478.6L114.8,457.6L113.4,432.5L135.9,419L148.3,410.5L148.4,423.5L142.9,435.2L151.3,436.6ZM396.3,626.6L406.3,629.6L408,624.9L423.7,620L427.8,628L451.5,632.4L450.6,644.2L455.5,653.9L442,651.5L429.1,660.9L430.7,672.6L429.1,679.5L435.4,691.3L452.4,702.1L462.8,721L484.2,738.4L498.1,736.8L503,741.5L498.6,746.9L515.7,753.6L529.8,759.1L547.1,769.3L549.7,773.5L547.5,782.6L535.8,772.8L519.4,771L513.7,787.5L528.1,794.7L527.5,807.5L519.9,810L512.3,831.8L504.5,834.6L503.8,827.2L506.2,813.8L509.7,808.2L500.9,795.1L493.9,783.6L486,781.4L479.6,771.5L467.4,768.2L458.8,759.2L445.3,758.7L430.6,748.8L413.5,734.1L400.9,720.8L394.7,697.3L386.1,694.9L372.1,687.3L364.2,690.6L354.3,701.7L347.2,703.4L349.2,693.1L340,690L335.8,671.5L341.8,664.3L337,655.3L337.7,648.6L344.8,653.8L352.8,652.7L362,644.6L364.9,648.4L372.7,647.5L376.1,637.9L388.3,640.6L395.4,636.3ZM486.4,830.7L500.6,827.2L495.7,847L499.3,854.2L496.6,867.1L480.7,859.4L470.6,857.6L442.8,847.2L444.6,834.5L467.1,835.1ZM370,770.3L378.9,762.7L390.2,779.5L388.4,811.6L379.9,810.2L372.4,818.4L365.2,812.1L364.2,782.9L359.9,769.2ZM382.5,436.1L373.9,439.9L363.6,436.9L358,423.9L357.6,399.8L359.7,393.4L363.4,386.3L374.6,384.7L378.9,378L388.9,371.1L388.9,383.2L385.4,391L387.2,397.6L394.4,400.9L391.5,409.9L387.5,407.5L378.5,424.7ZM413.8,408.1L418.8,419.6L412,439.1L397.2,426.6L394.9,416.8ZM160.6,443.5L151.3,436.6L142.9,435.2L148.4,423.5L148.3,410.5L159.6,411.9L171,429.1ZM201.4,461.8L201.4,461.9L205.5,448.6L198.7,432.9L198.5,432.5L182.9,425.7L180.9,418.8L187.6,409.3L184.4,402.1L175.3,411.7L178.8,389.3L174.7,376.3L184,353.2L197,336.1L206.4,339.7L221.4,340.1L204.1,363.2L217.4,362.1L231,364.2L225.1,382.8L210.3,402L223.6,405.5L224.3,408.1L232.5,437.2L241.3,442.1L246.8,469.7L249.8,479.4L266.6,485.5L263.5,500.4L255.5,506.5L260.2,519.2L245.7,530.2L226,527.8L199.9,530.8L193.6,525.2L182.1,534.5L168.8,529.6L156.8,536.6L149.7,530.4L175.7,510L189.6,507.2L189.5,507.1L167.6,499.4L165.2,489.4L181.4,484.9L175.9,471L181.2,456.3ZM141.5,129.6L134.5,143.8L140.2,163L121.9,176.4L87.9,181.8L77.7,182.5L66,174L42,155.3L55.7,149.9L40.2,129.8L58.6,133.2L61.1,126.5L44.4,112.5L57.2,101.2L72.1,104.1L79.6,125.3L98.4,118.8L107.4,129.6L126.8,122.9ZM451.5,632.4L465.1,633L472.7,626.9L486.8,624.8L489.4,620.4L492.2,620.3L496.3,627.9L484.1,635.7L483.5,645.4L478,648.4L478.8,655L472.2,655.3L466.3,651.9L463.6,656.2L451.9,656.4L455.5,653.9L450.6,644.2ZM534.4,73.4L538.1,90.3L556.3,101.7L553.5,121.8L572.5,144.8L572.4,166.5L586.7,180.7L587.4,196.9L607.7,207.4L607.7,220.3L602.2,236.6L587.7,272.9L567.7,280.4L549.7,293.8L532,302.9L522.6,291.7L510,286.2L508.1,262.8L498.8,242.6L501.3,228L507.8,211.3L525.3,180.7L530.7,174.2L527.3,164.5L511.2,156.6L505.9,148.2L497.5,111.6L480.2,98.3L466.3,88.7L470.3,81.3L482.4,92.2L493.4,88.6L504.1,92.2L509.6,79.6L509.2,61L519.7,49.4L532.9,55.8ZM580.3,552.1L577.3,559L576.2,569L573.4,572L555.6,568.1L550.8,570.4L548.1,576.6L541.4,580.7L539.4,579.5L532.5,584.4L526.3,586.1L525.8,590.9L513.1,595.8L506.9,594L498.1,589L495.5,581.1L496.4,578L497.9,572.5L504.8,572L509.7,568.9L509.8,566.6L512.6,565.1L512.8,559.7L516.2,558.1L517.9,553.6L522.4,552.9L523.5,554.1L529.2,550L538.2,557L546.3,550.4L553.9,551.5L564.1,546.2ZM460.3,522.5L468.1,529.3L479.4,530.1L479.2,536.7L487.9,540.5L489.4,534.2L500,535.5L502.4,542.6L513.8,542.4L522.4,552.9L517.9,553.6L516.2,558.1L512.8,559.7L512.6,565.1L509.8,566.6L509.7,568.9L504.8,572L497.9,572.5L496.4,578L488.7,574.5L481.6,576.5L468.8,570.7L463.6,573L455.7,583.4L443.6,576.8L434.1,567.4L425.9,562.3L423.6,552.4L420.5,545.6L431.1,539.7L436.2,533.5L446.5,528.1L449.8,523.2L453.9,525.6ZM846,824.2L850,824.1L854.4,820.2L858.2,819.1L860.1,820L861.3,822.2L861.9,821L864.9,820.4L867.9,817.2L870.2,817.3L871.5,818.9L855.5,835.7L845.1,836L837.3,828.3ZM542.2,714.3L525.6,707.6L517.7,698.5L510.5,694.2L501.6,686.3L497,679.4L487.4,669.2L489.9,659L496.5,663.8L499.5,658.4L507.2,656.9L522,658.9L533.5,656.9L541.8,661L547.8,659.9L545.3,671L554.9,678.7L554.2,690.2L550.4,691.9L547.5,694.5L542.8,700.9ZM610.1,710.2L620.3,715.9L624.9,731.2L621.7,732.7L619.7,737.4L610,738.9L604.2,745.4L592.9,749.8L584.4,745.4L580.1,735.6L580.9,727.2L583.2,727L583.1,722L592.7,716.4L596.5,714.8L602.1,712.2ZM535.1,636.8L546.5,628.6L556.8,628L567.3,635.5L570.5,642.7L581.5,646.3L584.7,655.7L595.7,660.5L599.9,654.2L604.6,656.3L601.5,661L605.4,664.4L602.4,670.6L605.7,678.8L616.1,687.2L611.2,695.8L609.8,703.9L612.2,706.3L610.1,710.2L602.1,712.2L596.5,714.8L595.5,713.1L597.1,709.9L597.9,703.8L595.5,704.4L591.3,700.7L588.2,700.1L585.3,696.8L581.8,696L578.7,693.1L575.9,695L574.9,703.2L571.1,705.7L572.1,703.4L564.7,699.6L558.6,698.1L555.6,695.2L550.4,691.9L554.2,690.2L554.9,678.7L545.3,671L547.8,659.9L541.8,661L546.8,651.1L540.4,645.3ZM568.8,711.5L564.4,714.4L562.6,710.1L556.9,723L559.3,730.4L555.3,729.1L549.2,722.2L540.9,718.6L542.2,714.3L542.8,700.9L547.5,694.5L550.4,691.9L555.6,695.2L558.6,698.1L564.7,699.6L572.1,703.4L571.1,705.7ZM580.9,727.2L578.2,718.9L573.6,717.2L568.8,711.5L571.1,705.7L574.9,703.2L575.9,695L578.7,693.1L581.8,696L585.3,696.8L588.2,700.1L591.3,700.7L595.5,704.4L597.9,703.8L597.1,709.9L595.5,713.1L596.5,714.8L592.7,716.4L583.1,722L583.2,727Z"/>
    </clipPath>
    <pattern id="mp-stripe" width="7" height="7" patternUnits="userSpaceOnUse" patternTransform="rotate(45)">
      <path class="mp-hatch-line" d="M0,0 V7" fill="none" stroke="#6E6152" stroke-width="1.8"/>
    </pattern>
  </defs>
  <rect class="mp-bg" x="0" y="0" width="900" height="900" fill="#A8C0CC"/>
  <g class="mp-layer mp-neighbours"/>
  <g class="mp-layer mp-land">
    <path class="mp-country" data-iso="NO" data-name="Norway" d="M390.7,-176.3L391.5,-185.9L398.5,-187.6L405.8,-178.9L425.8,-161.6L414.5,-148.7L414.5,-128.6L410.3,-122.9L410.4,-100.7L403.3,-98.8L389,-113.7L393.4,-123.6L384.3,-130.6L372.4,-152.7L367.5,-174L380.3,-184.7L383.7,-175.2ZM551.6,55.2L540.5,69.2L534.4,73.4L532.9,55.8L519.7,49.4L509.2,61L509.6,79.6L504.1,92.2L493.4,88.6L482.4,92.2L470.3,81.3L466.3,88.7L461.1,90.6L462.5,106.8L445.2,105.5L444.7,119.3L436,120.4L432,138.4L425.4,166.2L413,201.4L417.4,209.3L414.5,219.1L404.1,219.4L398.6,242.3L401.1,273.9L409.1,285.5L407,313.6L398,330.3L393.4,344.2L384.6,330L361.1,357.9L344.4,363.4L327.5,351L324.1,325.4L322.5,270.5L333.2,255.5L362,235.7L382.2,210.5L399,176L418.2,127.4L431.4,107.4L450.9,73.5L467.3,59.6L481.1,58.1L488.8,35.3L503.4,32.7L516,24L546,33.7L537.8,43.4ZM447.4,-197.8L444.2,-181.5L430.8,-175L415.4,-176.6L413.2,-184L406.2,-183.4L399.3,-195.3L412.2,-205.2L420.1,-199.9L423,-209L435.9,-204.8ZM449,-136.1L438.9,-122.6L427.8,-126.8L430.3,-134.3L425.5,-142.1L435.5,-149.6L439.8,-140.2Z" fill="#F2EAD8" stroke="#C9BFA6" stroke-width="0.8" stroke-linejoin="round">
      <title>Norway</title>
    </path>
    <path class="mp-country is-highlighted" data-iso="FR" data-name="France" d="M-1348.6,1014.8L-1383.5,1020.4L-1408.3,1029L-1426.1,1027.7L-1438.3,1017.2L-1434.2,1007.7L-1437.9,1001.2L-1451.4,999.2L-1455.4,983.8L-1439.4,981.3L-1426.1,973.8L-1411.7,969.2L-1405.1,947L-1389.9,931L-1358.4,925.9L-1354,936.4L-1344.5,958.9L-1342.3,1002ZM328.9,566.2L336,572.6L358.2,577.1L350.4,593.2L348.3,610.1L343.8,614.1L336.6,611.8L337,617.9L324.9,630.9L324.4,641.6L332.3,638.1L337.7,648.6L337,655.3L341.8,664.3L335.8,671.5L340,690L349.2,693.1L347.2,703.4L331.3,716.7L297.2,709.1L271.4,715.4L268.4,729.6L247.8,731.2L229,718.6L222.1,723L191.3,708.4L185.6,698.3L196.4,685.3L205.7,638.7L192.3,611.8L182.3,598.2L159.8,585.3L161.3,568L182,566.2L207,576L205.8,548.9L218.8,560.8L256,546.3L262.3,527.5L275.6,523.8L277.1,532.2L284,533.1L290.3,543L300.3,554.7L308.1,553.2L321.1,564.5L324.4,566.6ZM370.1,728.8L381.3,719.5L384.7,740L379.2,758.6L370.9,753.9L366.6,737.7Z" fill="#8C3B4A" stroke="#F2EAD8" stroke-width="0.8" stroke-linejoin="round">
      <title>France</title>
    </path>
    <path class="mp-country is-highlighted" data-iso="SE" data-name="Sweden" d="M393.4,344.2L398,330.3L407,313.6L409.1,285.5L401.1,273.9L398.6,242.3L404.1,219.4L414.5,219.1L417.4,209.3L413,201.4L425.4,166.2L432,138.4L436,120.4L444.7,119.3L445.2,105.5L462.5,106.8L461.1,90.6L466.3,88.7L480.2,98.3L497.5,111.6L505.9,148.2L511.2,156.6L496,166.9L489.7,185.3L494,199.5L481,221.4L463.5,245L460,279.3L470.3,294.8L483.3,306.2L476.3,334.2L464.4,341.4L464.5,381.4L459.8,404.2L443.7,403.6L437.9,422.8L422.6,425.1L416.8,403.2L404.5,377.1Z" fill="#8C3B4A" stroke="#F2EAD8" stroke-width="0.8" stroke-linejoin="round">
      <title>Sweden</title>
    </path>
    <path class="mp-country" data-iso="BY" data-name="Belarus" d="M617.6,370.8L632.7,372.5L636.2,377.6L642,372.8L656.1,374.1L660.8,384.2L660.1,391.1L673.1,403L679.8,405.2L680.5,409.5L690.7,410.3L696.6,414.8L693.2,421.5L682.2,424.5L680.3,427.5L686.1,433.8L694.3,446.9L683,452.2L680.4,458.5L683.2,470.1L676.9,469.8L664.6,474.8L659.3,470.7L655.3,476.2L649,474.5L637.8,477.2L620.6,476.1L605.9,477.9L595.1,481.2L588.8,489.2L582.1,491.6L579.5,481.5L572.9,471.7L580.2,465.2L578.2,456L572.4,448.1L569.6,438.1L582.7,435.3L595.1,423.1L594.9,409.4L603.7,399.3L599.8,389.4L606.5,383.5Z" fill="#F2EAD8" stroke="#C9BFA6" stroke-width="0.8" stroke-linejoin="round">
      <title>Belarus</title>
    </path>
    <path class="mp-country" data-iso="UA" data-name="Ukraine" data-stripe="" d="M694.3,446.9L699.7,446L701.4,439.7L705.9,439.4L719.1,432L732.5,441.1L730.8,446.9L734.6,453.3L746,450L754.7,457.5L756.2,461.9L776.9,462.3L786.1,454.3L799.1,460.6L807.1,456.7L830.7,454L833.8,460.1L833.6,474L842.3,484.3L843.5,492.5L830.3,500.6L825.6,510L829.5,519.8L818.5,526.8L811.7,538.1L798.1,545.2L788.4,558.7L793.9,570.2L791.3,570.4L787.6,566.9L782.3,567.9L769.5,567.4L767.6,574.4L764.6,572.8L738.5,575.8L734.5,567.8L721.2,575.4L719.5,589.7L712.6,610.3L704.2,608.7L697.8,614.7L689.4,612.6L692.7,608.9L693.2,600.3L695.3,591.7L692.9,588L695.6,585.2L698.1,587.9L707.5,585.7L711.2,582.7L707.5,581.3L707.5,577.6L700.3,573.6L695.1,564.8L688.4,562.8L687.1,554.8L678.5,550.8L672,551.8L658.8,547.9L649.4,553L646.7,557.3L640.2,559L637.8,565.4L627,570.4L622.6,575.3L614.1,571.4L604.2,573.6L594.1,573.1L588.5,579.5L586.1,573.5L576.2,569L577.3,559L580.3,552.1L583.9,552.8L577.8,543.2L587.2,521.2L593.9,516.8L593.9,510L582.1,491.6L588.8,489.2L595.1,481.2L605.9,477.9L620.6,476.1L637.8,477.2L649,474.5L655.3,476.2L659.3,470.7L664.6,474.8L676.9,469.8L683.2,470.1L680.4,458.5L683,452.2Z" fill="#F2EAD8" stroke="#C9BFA6" stroke-width="0.8" stroke-linejoin="round">
      <title>Ukraine</title>
    </path>
    <path class="mp-country is-highlighted" data-iso="PL" data-name="Poland" d="M569.6,438.1L572.4,448.1L578.2,456L580.2,465.2L572.9,471.7L579.5,481.5L582.1,491.6L593.9,510L593.9,516.8L587.2,521.2L577.8,543.2L583.9,552.8L580.3,552.1L564.1,546.2L553.9,551.5L546.3,550.4L538.2,557L529.2,550L523.5,554.1L522.4,552.9L513.8,542.4L502.4,542.6L500,535.5L489.4,534.2L487.9,540.5L479.2,536.7L479.4,530.1L468.1,529.3L460.3,522.5L452.8,508.1L453.2,499.9L448.5,487.7L442.6,479.8L445.9,473.2L441.6,461.6L450.4,453.8L470.6,440.7L486.6,430.6L500.6,432.6L502.4,438.1L515.5,436.3L532.6,436L557.4,430.7L564.8,431.7Z" fill="#8C3B4A" stroke="#F2EAD8" stroke-width="0.8" stroke-linejoin="round">
      <title>Poland</title>
    </path>
    <path class="mp-country is-highlighted" data-iso="AT" data-name="Austria" d="M498.1,589L498.1,598.8L489.3,599.9L492.9,604.7L489.4,620.4L486.8,624.8L472.7,626.9L465.1,633L451.5,632.4L427.8,628L423.7,620L408,624.9L406.3,629.6L396.3,626.6L388,626.2L380.7,622.1L383,616.2L382.3,612.1L387,610.6L395.3,616.9L397.4,610.6L411.5,611L422.7,606.1L430.3,606.3L435.6,610.8L436.9,606.7L433.5,591.5L438.9,588.1L443.6,576.8L455.7,583.4L463.6,573L468.8,570.7L481.6,576.5L488.7,574.5L496.4,578L495.5,581.1Z" fill="#8C3B4A" stroke="#F2EAD8" stroke-width="0.8" stroke-linejoin="round">
      <title>Austria</title>
    </path>
    <path class="mp-country is-highlighted" data-iso="HU" data-name="Hungary" d="M576.2,569L586.1,573.5L588.5,579.5L579.9,586.3L575.6,603.6L569,621.2L556.8,628L546.5,628.6L535.1,636.8L529.5,641.3L515.3,638.7L501.8,630.2L496.3,627.9L492.2,620.3L489.4,620.4L492.9,604.7L489.3,599.9L498.1,598.8L498.1,589L506.9,594L513.1,595.8L525.8,590.9L526.3,586.1L532.5,584.4L539.4,579.5L541.4,580.7L548.1,576.6L550.8,570.4L555.6,568.1L573.4,572Z" fill="#8C3B4A" stroke="#F2EAD8" stroke-width="0.8" stroke-linejoin="round">
      <title>Hungary</title>
    </path>
    <path class="mp-country" data-iso="MD" data-name="Moldova" data-stripe="" d="M646.7,557.3L649.4,553L658.8,547.9L672,551.8L678.5,550.8L687.1,554.8L688.4,562.8L695.1,564.8L700.3,573.6L707.5,577.6L707.5,581.3L711.2,582.7L707.5,585.7L698.1,587.9L695.6,585.2L692.9,588L695.3,591.7L693.2,600.3L692.7,608.9L689.4,612.6L683.5,603L682.4,592.8L678.9,583L666.1,572L658.5,563.7L651.9,558.3Z" fill="#F2EAD8" stroke="#C9BFA6" stroke-width="0.8" stroke-linejoin="round">
      <title>Moldova</title>
    </path>
    <path class="mp-country is-highlighted" data-iso="RO" data-name="Romania" d="M689.4,612.6L697.8,614.7L704.2,608.7L712.6,610.3L714.8,616.1L708.5,623.4L703,622.8L706.7,651.7L696.3,652.1L681.9,647.2L663.9,657.8L657.1,665.8L632.2,670.6L618.5,669.9L612.3,673L605.4,664.4L601.5,661L604.6,656.3L599.9,654.2L595.7,660.5L584.7,655.7L581.5,646.3L570.5,642.7L567.3,635.5L556.8,628L569,621.2L575.6,603.6L579.9,586.3L588.5,579.5L594.1,573.1L604.2,573.6L614.1,571.4L622.6,575.3L627,570.4L637.8,565.4L640.2,559L646.7,557.3L651.9,558.3L658.5,563.7L666.1,572L678.9,583L682.4,592.8L683.5,603Z" fill="#8C3B4A" stroke="#F2EAD8" stroke-width="0.8" stroke-linejoin="round">
      <title>Romania</title>
    </path>
    <path class="mp-country is-highlighted" data-iso="LT" data-name="Lithuania" d="M599.8,389.4L603.7,399.3L594.9,409.4L595.1,423.1L582.7,435.3L569.6,438.1L564.8,431.7L557.4,430.7L555,425.1L555.1,418.5L548.5,416L533.8,414.8L527.4,395.8L540.7,385.8L562.5,382.7L574.5,377.4L577.4,381.8L584.6,381.6Z" fill="#8C3B4A" stroke="#F2EAD8" stroke-width="0.8" stroke-linejoin="round">
      <title>Lithuania</title>
    </path>
    <path class="mp-country is-highlighted" data-iso="LV" data-name="Latvia" d="M598.1,344.4L605.5,348L609.8,358.7L617.6,370.8L606.5,383.5L599.8,389.4L584.6,381.6L577.4,381.8L574.5,377.4L562.5,382.7L540.7,385.8L527.4,395.8L524.6,378.2L528,362.5L538.1,352.2L551.7,367.4L561.6,364.7L559.9,346.5L569.3,339.9L575.3,341.4L588,347.1Z" fill="#8C3B4A" stroke="#F2EAD8" stroke-width="0.8" stroke-linejoin="round">
      <title>Latvia</title>
    </path>
    <path class="mp-country is-highlighted" data-iso="EE" data-name="Estonia" d="M593.5,296.6L596.4,300L591.8,315.5L601.4,335.7L598.1,344.4L588,347.1L575.3,341.4L569.3,339.9L559.9,346.5L558.1,332.6L554.3,336.5L544.8,330.1L540.8,317L554.3,307.2L568.1,300.2L581.7,300.6Z" fill="#8C3B4A" stroke="#F2EAD8" stroke-width="0.8" stroke-linejoin="round">
      <title>Estonia</title>
    </path>
    <path class="mp-country is-highlighted" data-iso="DE" data-name="Germany" d="M441.6,461.6L445.9,473.2L442.6,479.8L448.5,487.7L453.2,499.9L452.8,508.1L460.3,522.5L453.9,525.6L449.8,523.2L446.5,528.1L436.2,533.5L431.1,539.7L420.5,545.6L423.6,552.4L425.9,562.3L434.1,567.4L443.6,576.8L438.9,588.1L433.5,591.5L436.9,606.7L435.6,610.8L430.3,606.3L422.7,606.1L411.5,611L397.4,610.6L395.3,616.9L387,610.6L382.3,612.1L365.1,605.1L361.8,610.2L348.3,610.1L350.4,593.2L358.2,577.1L336,572.6L328.9,566.2L330,555.9L327.1,550.5L329.2,534.6L327.3,509.9L336.1,510.1L339.9,501.3L343.7,479.7L341.2,471.7L344,466.8L355.6,465.6L358.3,470.8L367.6,459.1L364.4,450.3L363.6,436.9L373.9,439.9L382.5,436.1L382.9,445.2L396.9,450.2L397.2,458.5L411,453.4L418.3,446.5L434.4,454.6Z" fill="#8C3B4A" stroke="#F2EAD8" stroke-width="0.8" stroke-linejoin="round">
      <title>Germany</title>
    </path>
    <path class="mp-country is-highlighted" data-iso="BG" data-name="Bulgaria" d="M605.4,664.4L612.3,673L618.5,669.9L632.2,670.6L657.1,665.8L663.9,657.8L681.9,647.2L696.3,652.1L706.7,651.7L700.9,663.7L699.5,681.9L708.7,693.5L693.1,694.6L677.5,706.6L680.4,718.2L665,724.5L650.7,719.3L638.2,729L624.9,731.2L620.3,715.9L610.1,710.2L612.2,706.3L609.8,703.9L611.2,695.8L616.1,687.2L605.7,678.8L602.4,670.6Z" fill="#8C3B4A" stroke="#F2EAD8" stroke-width="0.8" stroke-linejoin="round">
      <title>Bulgaria</title>
    </path>
    <path class="mp-country is-highlighted" data-iso="GR" data-name="Greece" d="M721,859.2L720.4,866.9L692.7,876L691.9,872L666.9,872.9L668.3,861.8L680.8,867.4L695.7,862.4L710.6,860.5L711.2,864.8ZM624.9,731.2L638.2,729L650.7,719.3L665,724.5L680.4,718.2L677.5,706.6L687.6,710.5L686.1,726.5L682.6,730.2L671.6,732.3L661.9,732.4L641.8,743.5L657.3,753.9L649,759.8L639,762.1L626.8,752L624.6,757.9L631.6,771.2L643.1,780.3L637.3,787L650,795.7L660.8,800.4L664.1,813.8L645.3,811.4L653.6,822.3L642.1,827.4L653.9,847L641.1,850L623.2,842.8L612.4,824.9L606,809.7L596.7,800L584.8,788.1L582.4,781.5L588.8,768.5L588.5,760.6L593.7,756.1L592.9,749.8L604.2,745.4L610,738.9L619.7,737.4L621.7,732.7Z" fill="#8C3B4A" stroke="#F2EAD8" stroke-width="0.8" stroke-linejoin="round">
      <title>Greece</title>
    </path>
    <path class="mp-country" data-iso="AL" data-name="Albania" data-stripe="" d="M592.9,749.8L593.7,756.1L588.5,760.6L588.8,768.5L582.4,781.5L578.9,780.4L577.7,775.2L566.2,768.9L562.8,757.8L561.7,741.4L562.9,733.6L559.3,730.4L556.9,723L562.6,710.1L564.4,714.4L568.8,711.5L573.6,717.2L578.2,718.9L580.9,727.2L580.1,735.6L584.4,745.4Z" fill="#F2EAD8" stroke="#C9BFA6" stroke-width="0.8" stroke-linejoin="round">
      <title>Albania</title>
    </path>
    <path class="mp-country is-highlighted" data-iso="HR" data-name="Croatia" d="M496.3,627.9L501.8,630.2L515.3,638.7L529.5,641.3L535.1,636.8L540.4,645.3L546.8,651.1L541.8,661L533.5,656.9L522,658.9L507.2,656.9L499.5,658.4L496.5,663.8L489.9,659L487.4,669.2L497,679.4L501.6,686.3L510.5,694.2L517.7,698.5L525.6,707.6L542.2,714.3L540.9,718.6L523.3,712.2L512.1,705L495.5,699.8L479.2,684L482.5,681.8L473.7,672.6L472.6,664.6L461.5,661.9L457.3,672.6L451.7,665.1L451.4,656.8L451.9,656.4L463.6,656.2L466.3,651.9L472.2,655.3L478.8,655L478,648.4L483.5,645.4L484.1,635.7Z" fill="#8C3B4A" stroke="#F2EAD8" stroke-width="0.8" stroke-linejoin="round">
      <title>Croatia</title>
    </path>
    <path class="mp-country" data-iso="CH" data-name="Switzerland" d="M382.3,612.1L383,616.2L380.7,622.1L388,626.2L396.3,626.6L395.4,636.3L388.3,640.6L376.1,637.9L372.7,647.5L364.9,648.4L362,644.6L352.8,652.7L344.8,653.8L337.7,648.6L332.3,638.1L324.4,641.6L324.9,630.9L337,617.9L336.6,611.8L343.8,614.1L348.3,610.1L361.8,610.2L365.1,605.1Z" fill="#F2EAD8" stroke="#C9BFA6" stroke-width="0.8" stroke-linejoin="round">
      <title>Switzerland</title>
    </path>
    <path class="mp-country" data-iso="LU" data-name="Luxembourg" d="M327.1,550.5L330,555.9L328.9,566.2L324.4,566.6L321.1,564.5L323.1,551.3Z" fill="#F2EAD8" stroke="#C9BFA6" stroke-width="0.8" stroke-linejoin="round">
      <title>Luxembourg</title>
    </path>
    <path class="mp-country is-highlighted" data-iso="BE" data-name="Belgium" d="M329.2,534.6L327.1,550.5L323.1,551.3L321.1,564.5L308.1,553.2L300.3,554.7L290.3,543L284,533.1L277.1,532.2L275.6,523.8L287.7,520L298.4,522.5L312.2,518.3L321.2,528.9Z" fill="#8C3B4A" stroke="#F2EAD8" stroke-width="0.8" stroke-linejoin="round">
      <title>Belgium</title>
    </path>
    <path class="mp-country is-highlighted" data-iso="NL" data-name="Netherlands" d="M341.2,471.7L343.7,479.7L339.9,501.3L336.1,510.1L327.3,509.9L329.2,534.6L321.2,528.9L312.2,518.3L298.4,522.5L287.7,520L295.6,514L310,480L329.6,470.8Z" fill="#8C3B4A" stroke="#F2EAD8" stroke-width="0.8" stroke-linejoin="round">
      <title>Netherlands</title>
    </path>
    <path class="mp-country is-highlighted" data-iso="PT" data-name="Portugal" d="M55.4,711.1L63.1,706.7L71,705L72.7,717.4L83,719.7L86.6,717.3L96.7,720.3L99.2,733.1L89.6,737.8L85.6,756.2L82,759L78.9,770.1L70.6,770.3L74.8,786.1L66.3,800.6L71.3,809L67.3,814.9L58.4,822.4L58.2,830.6L49.2,835.1L39.9,829.4L29.5,829.7L36.8,811.8L38.5,796.9L30.8,792.7L28.5,782.6L33.8,767.6L43.1,760.8L46.7,751.7L53.8,738.4L55.8,728.4L54.3,719.2Z" fill="#8C3B4A" stroke="#F2EAD8" stroke-width="0.8" stroke-linejoin="round">
      <title>Portugal</title>
    </path>
    <path class="mp-country is-highlighted" data-iso="ES" data-name="Spain" d="M58.2,830.6L58.4,822.4L67.3,814.9L71.3,809L66.3,800.6L74.8,786.1L70.6,770.3L78.9,770.1L82,759L85.6,756.2L89.6,737.8L99.2,733.1L96.7,720.3L86.6,717.3L83,719.7L72.7,717.4L71,705L63.1,706.7L55.4,711.1L60.3,694.8L55.8,682.9L83.6,671.8L103.4,680.5L126.2,684.9L143.6,692.2L158,693.4L185.6,698.3L191.3,708.4L222.1,723L229,718.6L247.8,731.2L268.4,729.6L268.4,743.6L250.3,758.3L226.7,761.3L224.2,769.2L211.6,781.3L202.3,800L208,814.7L195.9,824.2L189.9,839.4L174.8,842.4L158.6,859.1L133.9,855.8L115.5,852.3L101.8,858.6L92.7,866.4L83.5,862.5L77.9,853L75.2,838.1Z" fill="#8C3B4A" stroke="#F2EAD8" stroke-width="0.8" stroke-linejoin="round">
      <title>Spain</title>
    </path>
    <path class="mp-country is-highlighted" data-iso="IE" data-name="Ireland" d="M160.6,443.5L159.6,460.5L144.9,478.9L116.7,487L97.5,478.6L114.8,457.6L113.4,432.5L135.9,419L148.3,410.5L148.4,423.5L142.9,435.2L151.3,436.6Z" fill="#8C3B4A" stroke="#F2EAD8" stroke-width="0.8" stroke-linejoin="round">
      <title>Ireland</title>
    </path>
    <path class="mp-country is-highlighted" data-iso="IT" data-name="Italy" d="M396.3,626.6L406.3,629.6L408,624.9L423.7,620L427.8,628L451.5,632.4L450.6,644.2L455.5,653.9L442,651.5L429.1,660.9L430.7,672.6L429.1,679.5L435.4,691.3L452.4,702.1L462.8,721L484.2,738.4L498.1,736.8L503,741.5L498.6,746.9L515.7,753.6L529.8,759.1L547.1,769.3L549.7,773.5L547.5,782.6L535.8,772.8L519.4,771L513.7,787.5L528.1,794.7L527.5,807.5L519.9,810L512.3,831.8L504.5,834.6L503.8,827.2L506.2,813.8L509.7,808.2L500.9,795.1L493.9,783.6L486,781.4L479.6,771.5L467.4,768.2L458.8,759.2L445.3,758.7L430.6,748.8L413.5,734.1L400.9,720.8L394.7,697.3L386.1,694.9L372.1,687.3L364.2,690.6L354.3,701.7L347.2,703.4L349.2,693.1L340,690L335.8,671.5L341.8,664.3L337,655.3L337.7,648.6L344.8,653.8L352.8,652.7L362,644.6L364.9,648.4L372.7,647.5L376.1,637.9L388.3,640.6L395.4,636.3ZM486.4,830.7L500.6,827.2L495.7,847L499.3,854.2L496.6,867.1L480.7,859.4L470.6,857.6L442.8,847.2L444.6,834.5L467.1,835.1ZM370,770.3L378.9,762.7L390.2,779.5L388.4,811.6L379.9,810.2L372.4,818.4L365.2,812.1L364.2,782.9L359.9,769.2Z" fill="#8C3B4A" stroke="#F2EAD8" stroke-width="0.8" stroke-linejoin="round">
      <title>Italy</title>
    </path>
    <path class="mp-country is-highlighted" data-iso="DK" data-name="Denmark" d="M382.5,436.1L373.9,439.9L363.6,436.9L358,423.9L357.6,399.8L359.7,393.4L363.4,386.3L374.6,384.7L378.9,378L388.9,371.1L388.9,383.2L385.4,391L387.2,397.6L394.4,400.9L391.5,409.9L387.5,407.5L378.5,424.7ZM413.8,408.1L418.8,419.6L412,439.1L397.2,426.6L394.9,416.8Z" fill="#8C3B4A" stroke="#F2EAD8" stroke-width="0.8" stroke-linejoin="round">
      <title>Denmark</title>
    </path>
    <path class="mp-country" data-iso="GB" data-name="United Kingdom" d="M160.6,443.5L151.3,436.6L142.9,435.2L148.4,423.5L148.3,410.5L159.6,411.9L171,429.1ZM201.4,461.8L201.4,461.9L205.5,448.6L198.7,432.9L198.5,432.5L182.9,425.7L180.9,418.8L187.6,409.3L184.4,402.1L175.3,411.7L178.8,389.3L174.7,376.3L184,353.2L197,336.1L206.4,339.7L221.4,340.1L204.1,363.2L217.4,362.1L231,364.2L225.1,382.8L210.3,402L223.6,405.5L224.3,408.1L232.5,437.2L241.3,442.1L246.8,469.7L249.8,479.4L266.6,485.5L263.5,500.4L255.5,506.5L260.2,519.2L245.7,530.2L226,527.8L199.9,530.8L193.6,525.2L182.1,534.5L168.8,529.6L156.8,536.6L149.7,530.4L175.7,510L189.6,507.2L189.5,507.1L167.6,499.4L165.2,489.4L181.4,484.9L175.9,471L181.2,456.3Z" fill="#F2EAD8" stroke="#C9BFA6" stroke-width="0.8" stroke-linejoin="round">
      <title>United Kingdom</title>
    </path>
    <path class="mp-country" data-iso="IS" data-name="Iceland" d="M141.5,129.6L134.5,143.8L140.2,163L121.9,176.4L87.9,181.8L77.7,182.5L66,174L42,155.3L55.7,149.9L40.2,129.8L58.6,133.2L61.1,126.5L44.4,112.5L57.2,101.2L72.1,104.1L79.6,125.3L98.4,118.8L107.4,129.6L126.8,122.9Z" fill="#F2EAD8" stroke="#C9BFA6" stroke-width="0.8" stroke-linejoin="round">
      <title>Iceland</title>
    </path>
    <path class="mp-country is-highlighted" data-iso="SI" data-name="Slovenia" d="M451.5,632.4L465.1,633L472.7,626.9L486.8,624.8L489.4,620.4L492.2,620.3L496.3,627.9L484.1,635.7L483.5,645.4L478,648.4L478.8,655L472.2,655.3L466.3,651.9L463.6,656.2L451.9,656.4L455.5,653.9L450.6,644.2Z" fill="#8C3B4A" stroke="#F2EAD8" stroke-width="0.8" stroke-linejoin="round">
      <title>Slovenia</title>
    </path>
    <path class="mp-country is-highlighted" data-iso="FI" data-name="Finland" d="M534.4,73.4L538.1,90.3L556.3,101.7L553.5,121.8L572.5,144.8L572.4,166.5L586.7,180.7L587.4,196.9L607.7,207.4L607.7,220.3L602.2,236.6L587.7,272.9L567.7,280.4L549.7,293.8L532,302.9L522.6,291.7L510,286.2L508.1,262.8L498.8,242.6L501.3,228L507.8,211.3L525.3,180.7L530.7,174.2L527.3,164.5L511.2,156.6L505.9,148.2L497.5,111.6L480.2,98.3L466.3,88.7L470.3,81.3L482.4,92.2L493.4,88.6L504.1,92.2L509.6,79.6L509.2,61L519.7,49.4L532.9,55.8Z" fill="#8C3B4A" stroke="#F2EAD8" stroke-width="0.8" stroke-linejoin="round">
      <title>Finland</title>
    </path>
    <path class="mp-country is-highlighted" data-iso="SK" data-name="Slovakia" d="M580.3,552.1L577.3,559L576.2,569L573.4,572L555.6,568.1L550.8,570.4L548.1,576.6L541.4,580.7L539.4,579.5L532.5,584.4L526.3,586.1L525.8,590.9L513.1,595.8L506.9,594L498.1,589L495.5,581.1L496.4,578L497.9,572.5L504.8,572L509.7,568.9L509.8,566.6L512.6,565.1L512.8,559.7L516.2,558.1L517.9,553.6L522.4,552.9L523.5,554.1L529.2,550L538.2,557L546.3,550.4L553.9,551.5L564.1,546.2Z" fill="#8C3B4A" stroke="#F2EAD8" stroke-width="0.8" stroke-linejoin="round">
      <title>Slovakia</title>
    </path>
    <path class="mp-country is-highlighted" data-iso="CZ" data-name="Czechia" d="M460.3,522.5L468.1,529.3L479.4,530.1L479.2,536.7L487.9,540.5L489.4,534.2L500,535.5L502.4,542.6L513.8,542.4L522.4,552.9L517.9,553.6L516.2,558.1L512.8,559.7L512.6,565.1L509.8,566.6L509.7,568.9L504.8,572L497.9,572.5L496.4,578L488.7,574.5L481.6,576.5L468.8,570.7L463.6,573L455.7,583.4L443.6,576.8L434.1,567.4L425.9,562.3L423.6,552.4L420.5,545.6L431.1,539.7L436.2,533.5L446.5,528.1L449.8,523.2L453.9,525.6Z" fill="#8C3B4A" stroke="#F2EAD8" stroke-width="0.8" stroke-linejoin="round">
      <title>Czechia</title>
    </path>
    <path class="mp-country" data-iso="CY" data-name="Cyprus" d="M846,824.2L850,824.1L854.4,820.2L858.2,819.1L860.1,820L861.3,822.2L861.9,821L864.9,820.4L867.9,817.2L870.2,817.3L871.5,818.9L855.5,835.7L845.1,836L837.3,828.3Z" fill="#F2EAD8" stroke="#C9BFA6" stroke-width="0.8" stroke-linejoin="round">
      <title>Cyprus</title>
    </path>
    <path class="mp-country" data-iso="BA" data-name="Bosnia and Herz." data-stripe="" d="M542.2,714.3L525.6,707.6L517.7,698.5L510.5,694.2L501.6,686.3L497,679.4L487.4,669.2L489.9,659L496.5,663.8L499.5,658.4L507.2,656.9L522,658.9L533.5,656.9L541.8,661L547.8,659.9L545.3,671L554.9,678.7L554.2,690.2L550.4,691.9L547.5,694.5L542.8,700.9Z" fill="#F2EAD8" stroke="#C9BFA6" stroke-width="0.8" stroke-linejoin="round">
      <title>Bosnia and Herz.</title>
    </path>
    <path class="mp-country" data-iso="MK" data-name="Macedonia" data-stripe="" d="M610.1,710.2L620.3,715.9L624.9,731.2L621.7,732.7L619.7,737.4L610,738.9L604.2,745.4L592.9,749.8L584.4,745.4L580.1,735.6L580.9,727.2L583.2,727L583.1,722L592.7,716.4L596.5,714.8L602.1,712.2Z" fill="#F2EAD8" stroke="#C9BFA6" stroke-width="0.8" stroke-linejoin="round">
      <title>Macedonia</title>
    </path>
    <path class="mp-country" data-iso="RS" data-name="Serbia" data-stripe="" d="M535.1,636.8L546.5,628.6L556.8,628L567.3,635.5L570.5,642.7L581.5,646.3L584.7,655.7L595.7,660.5L599.9,654.2L604.6,656.3L601.5,661L605.4,664.4L602.4,670.6L605.7,678.8L616.1,687.2L611.2,695.8L609.8,703.9L612.2,706.3L610.1,710.2L602.1,712.2L596.5,714.8L595.5,713.1L597.1,709.9L597.9,703.8L595.5,704.4L591.3,700.7L588.2,700.1L585.3,696.8L581.8,696L578.7,693.1L575.9,695L574.9,703.2L571.1,705.7L572.1,703.4L564.7,699.6L558.6,698.1L555.6,695.2L550.4,691.9L554.2,690.2L554.9,678.7L545.3,671L547.8,659.9L541.8,661L546.8,651.1L540.4,645.3Z" fill="#F2EAD8" stroke="#C9BFA6" stroke-width="0.8" stroke-linejoin="round">
      <title>Serbia</title>
    </path>
    <path class="mp-country" data-iso="ME" data-name="Montenegro" data-stripe="" d="M568.8,711.5L564.4,714.4L562.6,710.1L556.9,723L559.3,730.4L555.3,729.1L549.2,722.2L540.9,718.6L542.2,714.3L542.8,700.9L547.5,694.5L550.4,691.9L555.6,695.2L558.6,698.1L564.7,699.6L572.1,703.4L571.1,705.7Z" fill="#F2EAD8" stroke="#C9BFA6" stroke-width="0.8" stroke-linejoin="round">
      <title>Montenegro</title>
    </path>
    <path class="mp-country" data-iso="XK" data-name="Kosovo" d="M580.9,727.2L578.2,718.9L573.6,717.2L568.8,711.5L571.1,705.7L574.9,703.2L575.9,695L578.7,693.1L581.8,696L585.3,696.8L588.2,700.1L591.3,700.7L595.5,704.4L597.9,703.8L597.1,709.9L595.5,713.1L596.5,714.8L592.7,716.4L583.1,722L583.2,727Z" fill="#F2EAD8" stroke="#C9BFA6" stroke-width="0.8" stroke-linejoin="round">
      <title>Kosovo</title>
    </path>
    <path class="mp-hatch" data-iso="UA" d="M694.3,446.9L699.7,446L701.4,439.7L705.9,439.4L719.1,432L732.5,441.1L730.8,446.9L734.6,453.3L746,450L754.7,457.5L756.2,461.9L776.9,462.3L786.1,454.3L799.1,460.6L807.1,456.7L830.7,454L833.8,460.1L833.6,474L842.3,484.3L843.5,492.5L830.3,500.6L825.6,510L829.5,519.8L818.5,526.8L811.7,538.1L798.1,545.2L788.4,558.7L793.9,570.2L791.3,570.4L787.6,566.9L782.3,567.9L769.5,567.4L767.6,574.4L764.6,572.8L738.5,575.8L734.5,567.8L721.2,575.4L719.5,589.7L712.6,610.3L704.2,608.7L697.8,614.7L689.4,612.6L692.7,608.9L693.2,600.3L695.3,591.7L692.9,588L695.6,585.2L698.1,587.9L707.5,585.7L711.2,582.7L707.5,581.3L707.5,577.6L700.3,573.6L695.1,564.8L688.4,562.8L687.1,554.8L678.5,550.8L672,551.8L658.8,547.9L649.4,553L646.7,557.3L640.2,559L637.8,565.4L627,570.4L622.6,575.3L614.1,571.4L604.2,573.6L594.1,573.1L588.5,579.5L586.1,573.5L576.2,569L577.3,559L580.3,552.1L583.9,552.8L577.8,543.2L587.2,521.2L593.9,516.8L593.9,510L582.1,491.6L588.8,489.2L595.1,481.2L605.9,477.9L620.6,476.1L637.8,477.2L649,474.5L655.3,476.2L659.3,470.7L664.6,474.8L676.9,469.8L683.2,470.1L680.4,458.5L683,452.2Z" fill="url(#mp-stripe)" stroke="none"/>
    <path class="mp-hatch" data-iso="MD" d="M646.7,557.3L649.4,553L658.8,547.9L672,551.8L678.5,550.8L687.1,554.8L688.4,562.8L695.1,564.8L700.3,573.6L707.5,577.6L707.5,581.3L711.2,582.7L707.5,585.7L698.1,587.9L695.6,585.2L692.9,588L695.3,591.7L693.2,600.3L692.7,608.9L689.4,612.6L683.5,603L682.4,592.8L678.9,583L666.1,572L658.5,563.7L651.9,558.3Z" fill="url(#mp-stripe)" stroke="none"/>
    <path class="mp-hatch" data-iso="AL" d="M592.9,749.8L593.7,756.1L588.5,760.6L588.8,768.5L582.4,781.5L578.9,780.4L577.7,775.2L566.2,768.9L562.8,757.8L561.7,741.4L562.9,733.6L559.3,730.4L556.9,723L562.6,710.1L564.4,714.4L568.8,711.5L573.6,717.2L578.2,718.9L580.9,727.2L580.1,735.6L584.4,745.4Z" fill="url(#mp-stripe)" stroke="none"/>
    <path class="mp-hatch" data-iso="BA" d="M542.2,714.3L525.6,707.6L517.7,698.5L510.5,694.2L501.6,686.3L497,679.4L487.4,669.2L489.9,659L496.5,663.8L499.5,658.4L507.2,656.9L522,658.9L533.5,656.9L541.8,661L547.8,659.9L545.3,671L554.9,678.7L554.2,690.2L550.4,691.9L547.5,694.5L542.8,700.9Z" fill="url(#mp-stripe)" stroke="none"/>
    <path class="mp-hatch" data-iso="MK" d="M610.1,710.2L620.3,715.9L624.9,731.2L621.7,732.7L619.7,737.4L610,738.9L604.2,745.4L592.9,749.8L584.4,745.4L580.1,735.6L580.9,727.2L583.2,727L583.1,722L592.7,716.4L596.5,714.8L602.1,712.2Z" fill="url(#mp-stripe)" stroke="none"/>
    <path class="mp-hatch" data-iso="RS" d="M535.1,636.8L546.5,628.6L556.8,628L567.3,635.5L570.5,642.7L581.5,646.3L584.7,655.7L595.7,660.5L599.9,654.2L604.6,656.3L601.5,661L605.4,664.4L602.4,670.6L605.7,678.8L616.1,687.2L611.2,695.8L609.8,703.9L612.2,706.3L610.1,710.2L602.1,712.2L596.5,714.8L595.5,713.1L597.1,709.9L597.9,703.8L595.5,704.4L591.3,700.7L588.2,700.1L585.3,696.8L581.8,696L578.7,693.1L575.9,695L574.9,703.2L571.1,705.7L572.1,703.4L564.7,699.6L558.6,698.1L555.6,695.2L550.4,691.9L554.2,690.2L554.9,678.7L545.3,671L547.8,659.9L541.8,661L546.8,651.1L540.4,645.3Z" fill="url(#mp-stripe)" stroke="none"/>
    <path class="mp-hatch" data-iso="ME" d="M568.8,711.5L564.4,714.4L562.6,710.1L556.9,723L559.3,730.4L555.3,729.1L549.2,722.2L540.9,718.6L542.2,714.3L542.8,700.9L547.5,694.5L550.4,691.9L555.6,695.2L558.6,698.1L564.7,699.6L572.1,703.4L571.1,705.7Z" fill="url(#mp-stripe)" stroke="none"/>
  </g>
  <g class="mp-layer mp-hydro" clip-path="url(#mp-land-clip)">
    <path class="mp-water" data-kind="lake" fill="#7FA0B4" d="M428.8,333.8L429,336.4L428.5,340.7L421.2,348.6L416,351.1L411.6,351.4L412.1,345L411.4,342.9L413.5,340.9L417.4,339.4L419.4,336.2L423.7,330.9Z" stroke="none"/>
    <path class="mp-water" data-kind="river" fill="none" d="M360.4,599.7L365.5,601.6L379,597.3L399,584.9L414,580.9L419.2,574.9L421,575.7L424.4,576.2L426.7,577L429.1,577.8L434.2,580.3L440,583L442.3,584L462.2,590.3L466.8,590.3L476.4,585.5L481,585.5L496.3,588.4L506.7,593.7L512.8,596L525.9,591L529.6,592.3L531.9,595.3L531.9,607L534,616.1L534.6,628.2L533.8,633.9L534,635.5L534.8,637.1L536.2,639L538.7,642.9L540.3,645.3L542.3,646.7L545.3,649.4L546.7,650.8L548.6,651L553.4,651.1L557.9,651.6L559.6,651.8L567.6,658.1L571.5,658.8L581.2,654.8L584.5,655.9L596,660.7L599.7,654.1L604.5,656.2L601.7,661.2L605.5,664.3L612.4,672.8L618.7,669.7L632.2,670.6L657.3,666L663.6,657.7L681.9,647.4L682.5,647.7L683.3,648L684.2,646.7L687.4,644.1L690.4,641.5L692,640.5L693.9,638.3L692.8,636.3L688.7,631.3L687.3,620.1L687.5,618.3L689,615.1L689.2,613.3L691.7,613.4L695.6,613.9L697.8,614.7L704.1,608.9L712.7,610.2" stroke="#7FA0B4" stroke-width="1.1" stroke-linecap="round" stroke-linejoin="round"/>
  </g>
  <g class="mp-layer mp-borders" fill="none">
    <path class="mp-border" data-kind="intl" d="M534.4,73.4L532.9,55.8L519.7,49.4L509.2,61L509.6,79.6L504.1,92.2L493.4,88.6L482.4,92.2L470.3,81.3L466.3,88.7L461.1,90.6L462.5,106.8L445.2,105.5L444.7,119.3L436,120.4L432,138.4L425.4,166.2L413,201.4L417.4,209.3L414.5,219.1L404.1,219.4L398.6,242.3L401.1,273.9L409.1,285.5L407,313.6L398,330.3L393.4,344.2M275.6,523.8L277.1,532.2L284,533.1L290.3,543L300.3,554.7L308.1,553.2L321.1,564.5L324.4,566.6L328.9,566.2L336,572.6L358.2,577.1L350.4,593.2L348.3,610.1L343.8,614.1L336.6,611.8L337,617.9L324.9,630.9L324.4,641.6L332.3,638.1L337.7,648.6L337,655.3L341.8,664.3L335.8,671.5L340,690L349.2,693.1L347.2,703.4M268.4,729.6L247.8,731.2L229,718.6L222.1,723L191.3,708.4L185.6,698.3M466.3,88.7L480.2,98.3L497.5,111.6L505.9,148.2L511.2,156.6M694.3,446.9L683,452.2L680.4,458.5L683.2,470.1L676.9,469.8L664.6,474.8L659.3,470.7L655.3,476.2L649,474.5L637.8,477.2L620.6,476.1L605.9,477.9L595.1,481.2L588.8,489.2L582.1,491.6L579.5,481.5L572.9,471.7L580.2,465.2L578.2,456L572.4,448.1L569.6,438.1L582.7,435.3L595.1,423.1L594.9,409.4L603.7,399.3L599.8,389.4L606.5,383.5L617.6,370.8M712.6,610.3L704.2,608.7L697.8,614.7L689.4,612.6L692.7,608.9L693.2,600.3L695.3,591.7L692.9,588L695.6,585.2L698.1,587.9L707.5,585.7L711.2,582.7L707.5,581.3L707.5,577.6L700.3,573.6L695.1,564.8L688.4,562.8L687.1,554.8L678.5,550.8L672,551.8L658.8,547.9L649.4,553L646.7,557.3L640.2,559L637.8,565.4L627,570.4L622.6,575.3L614.1,571.4L604.2,573.6L594.1,573.1L588.5,579.5L586.1,573.5L576.2,569L577.3,559L580.3,552.1L583.9,552.8L577.8,543.2L587.2,521.2L593.9,516.8L593.9,510L582.1,491.6M580.3,552.1L564.1,546.2L553.9,551.5L546.3,550.4L538.2,557L529.2,550L523.5,554.1L522.4,552.9L513.8,542.4L502.4,542.6L500,535.5L489.4,534.2L487.9,540.5L479.2,536.7L479.4,530.1L468.1,529.3L460.3,522.5L452.8,508.1L453.2,499.9L448.5,487.7L442.6,479.8L445.9,473.2L441.6,461.6M557.4,430.7L564.8,431.7L569.6,438.1M588.5,579.5L579.9,586.3L575.6,603.6L569,621.2L556.8,628L546.5,628.6L535.1,636.8L529.5,641.3L515.3,638.7L501.8,630.2L496.3,627.9L492.2,620.3L489.4,620.4M498.1,589L498.1,598.8L489.3,599.9L492.9,604.7L489.4,620.4L486.8,624.8L472.7,626.9L465.1,633L451.5,632.4L427.8,628L423.7,620L408,624.9L406.3,629.6L396.3,626.6L388,626.2L380.7,622.1L383,616.2L382.3,612.1L387,610.6L395.3,616.9L397.4,610.6L411.5,611L422.7,606.1L430.3,606.3L435.6,610.8L436.9,606.7L433.5,591.5L438.9,588.1L443.6,576.8L455.7,583.4L463.6,573L468.8,570.7L481.6,576.5L488.7,574.5L496.4,578L495.5,581.1L498.1,589L506.9,594L513.1,595.8L525.8,590.9L526.3,586.1L532.5,584.4L539.4,579.5L541.4,580.7L548.1,576.6L550.8,570.4L555.6,568.1L573.4,572L576.2,569M689.4,612.6L683.5,603L682.4,592.8L678.9,583L666.1,572L658.5,563.7L651.9,558.3L646.7,557.3M706.7,651.7L696.3,652.1L681.9,647.2L663.9,657.8L657.1,665.8L632.2,670.6L618.5,669.9L612.3,673L605.4,664.4L601.5,661L604.6,656.3L599.9,654.2L595.7,660.5L584.7,655.7L581.5,646.3L570.5,642.7L567.3,635.5L556.8,628M527.4,395.8L540.7,385.8L562.5,382.7L574.5,377.4L577.4,381.8L584.6,381.6L599.8,389.4M559.9,346.5L569.3,339.9L575.3,341.4L588,347.1L598.1,344.4M460.3,522.5L453.9,525.6L449.8,523.2L446.5,528.1L436.2,533.5L431.1,539.7L420.5,545.6L423.6,552.4L425.9,562.3L434.1,567.4L443.6,576.8M382.3,612.1L365.1,605.1L361.8,610.2L348.3,610.1M328.9,566.2L330,555.9L327.1,550.5L329.2,534.6L327.3,509.9L336.1,510.1L339.9,501.3L343.7,479.7L341.2,471.7M363.6,436.9L373.9,439.9L382.5,436.1M677.5,706.6L680.4,718.2L665,724.5L650.7,719.3L638.2,729L624.9,731.2L620.3,715.9L610.1,710.2L612.2,706.3L609.8,703.9L611.2,695.8L616.1,687.2L605.7,678.8L602.4,670.6L605.4,664.4M582.4,781.5L588.8,768.5L588.5,760.6L593.7,756.1L592.9,749.8L604.2,745.4L610,738.9L619.7,737.4L621.7,732.7L624.9,731.2M559.3,730.4L556.9,723L562.6,710.1L564.4,714.4L568.8,711.5L573.6,717.2L578.2,718.9L580.9,727.2L580.1,735.6L584.4,745.4L592.9,749.8M535.1,636.8L540.4,645.3L546.8,651.1L541.8,661L533.5,656.9L522,658.9L507.2,656.9L499.5,658.4L496.5,663.8L489.9,659L487.4,669.2L497,679.4L501.6,686.3L510.5,694.2L517.7,698.5L525.6,707.6L542.2,714.3L540.9,718.6M451.9,656.4L463.6,656.2L466.3,651.9L472.2,655.3L478.8,655L478,648.4L483.5,645.4L484.1,635.7L496.3,627.9M396.3,626.6L395.4,636.3L388.3,640.6L376.1,637.9L372.7,647.5L364.9,648.4L362,644.6L352.8,652.7L344.8,653.8L337.7,648.6M321.1,564.5L323.1,551.3L327.1,550.5M287.7,520L298.4,522.5L312.2,518.3L321.2,528.9L329.2,534.6M55.4,711.1L63.1,706.7L71,705L72.7,717.4L83,719.7L86.6,717.3L96.7,720.3L99.2,733.1L89.6,737.8L85.6,756.2L82,759L78.9,770.1L70.6,770.3L74.8,786.1L66.3,800.6L71.3,809L67.3,814.9L58.4,822.4L58.2,830.6M148.3,410.5L148.4,423.5L142.9,435.2L151.3,436.6L160.6,443.5M451.5,632.4L450.6,644.2L455.5,653.9M496.4,578L497.9,572.5L504.8,572L509.7,568.9L509.8,566.6L512.6,565.1L512.8,559.7L516.2,558.1L517.9,553.6L522.4,552.9M541.8,661L547.8,659.9L545.3,671L554.9,678.7L554.2,690.2L550.4,691.9L547.5,694.5L542.8,700.9L542.2,714.3M580.9,727.2L583.2,727L583.1,722L592.7,716.4L596.5,714.8L602.1,712.2L610.1,710.2M596.5,714.8L595.5,713.1L597.1,709.9L597.9,703.8L595.5,704.4L591.3,700.7L588.2,700.1L585.3,696.8L581.8,696L578.7,693.1L575.9,695L574.9,703.2L571.1,705.7L572.1,703.4L564.7,699.6L558.6,698.1L555.6,695.2L550.4,691.9M571.1,705.7L568.8,711.5" fill="none" stroke="#6E6152" stroke-width="1.4" stroke-dasharray="5 2.5" stroke-linejoin="round" stroke-linecap="round"/>
  </g>
  <g class="mp-layer mp-roads"/>
  <g class="mp-layer mp-places">
    <circle class="mp-place" data-name="Paris" data-iso="FR" data-rank="1" data-pop="9904000" cx="269.029" cy="577.519" r="3.2" fill="#3A342A" stroke="none">
      <title>Paris</title>
    </circle>
    <circle class="mp-place" data-name="London" data-iso="GB" data-rank="1" data-pop="8567000" cx="237.766" cy="511.908" r="3.2" fill="#3A342A" stroke="none">
      <title>London</title>
    </circle>
    <circle class="mp-place" data-name="Rome" data-iso="IT" data-rank="1" data-pop="3339000" cx="436.998" cy="743.746" r="3.2" fill="#3A342A" stroke="none">
      <title>Rome</title>
    </circle>
    <circle class="mp-place" data-name="Madrid" data-iso="ES" data-rank="1" data-pop="5567000" cx="143.336" cy="765.209" r="3.2" fill="#3A342A" stroke="none">
      <title>Madrid</title>
    </circle>
    <circle class="mp-place" data-name="Berlin" data-iso="DE" data-rank="1" data-pop="3406000" cx="433.861" cy="491.341" r="3.2" fill="#3A342A" stroke="none">
      <title>Berlin</title>
    </circle>
    <circle class="mp-place" data-name="Athens" data-iso="GR" data-rank="1" data-pop="3242000" cx="656.561" cy="807.265" r="3.2" fill="#3A342A" stroke="none">
      <title>Athens</title>
    </circle>
    <circle class="mp-place" data-name="Kiev" data-iso="UA" data-rank="1" data-pop="2709000" cx="689.145" cy="490.088" r="3.2" fill="#3A342A" stroke="none">
      <title>Kiev</title>
    </circle>
    <circle class="mp-place" data-name="Vienna" data-iso="AT" data-rank="1" data-pop="2400000" cx="488.252" cy="588.397" r="3.2" fill="#3A342A" stroke="none">
      <title>Vienna</title>
    </circle>
    <circle class="mp-place" data-name="Stockholm" data-iso="SE" data-rank="1" data-pop="1264000" cx="477.474" cy="325.23" r="3.2" fill="#3A342A" stroke="none">
      <title>Stockholm</title>
    </circle>
    <circle class="mp-place" data-name="Amsterdam" data-iso="NL" data-rank="1" data-pop="1031000" cx="312.194" cy="497.568" r="3.2" fill="#3A342A" stroke="none">
      <title>Amsterdam</title>
    </circle>
    <circle class="mp-place" data-name="Lisbon" data-iso="PT" data-rank="1" data-pop="2812000" cx="35.445" cy="784.671" r="3.2" fill="#3A342A" stroke="none">
      <title>Lisbon</title>
    </circle>
    <circle class="mp-place" data-name="Bucharest" data-iso="RO" data-rank="1" data-pop="1942000" cx="661.445" cy="646.331" r="3.2" fill="#3A342A" stroke="none">
      <title>Bucharest</title>
    </circle>
    <circle class="mp-place" data-name="Brussels" data-iso="BE" data-rank="1" data-pop="1743000" cx="302.034" cy="532.876" r="3.2" fill="#3A342A" stroke="none">
      <title>Brussels</title>
    </circle>
    <circle class="mp-place" data-name="Warsaw" data-iso="PL" data-rank="1" data-pop="1707000" cx="543.133" cy="483.914" r="3.2" fill="#3A342A" stroke="none">
      <title>Warsaw</title>
    </circle>
    <circle class="mp-place" data-name="Budapest" data-iso="HU" data-rank="1" data-pop="1679000" cx="533.249" cy="598.86" r="3.2" fill="#3A342A" stroke="none">
      <title>Budapest</title>
    </circle>
    <circle class="mp-place" data-name="Prague" data-iso="CZ" data-rank="1" data-pop="1162000" cx="453.738" cy="547.289" r="3.2" fill="#3A342A" stroke="none">
      <title>Prague</title>
    </circle>
    <circle class="mp-place" data-name="Helsinki" data-iso="FI" data-rank="1" data-pop="1115000" cx="554.165" cy="290.15" r="3.2" fill="#3A342A" stroke="none">
      <title>Helsinki</title>
    </circle>
    <circle class="mp-place" data-name="Kobenhavn" data-iso="DK" data-rank="1" data-pop="1085000" cx="417" cy="418.007" r="3.2" fill="#3A342A" stroke="none">
      <title>Kobenhavn</title>
    </circle>
    <circle class="mp-place" data-name="Dublin" data-iso="IE" data-rank="1" data-pop="1059000" cx="157.398" cy="455.393" r="3.2" fill="#3A342A" stroke="none">
      <title>Dublin</title>
    </circle>
    <circle class="mp-place" data-name="Oslo" data-iso="NO" data-rank="1" data-pop="835000" cx="388.907" cy="319.239" r="3.2" fill="#3A342A" stroke="none">
      <title>Oslo</title>
    </circle>
    <circle class="mp-place" data-name="Minsk" data-iso="BY" data-rank="1" data-pop="1805000" cx="624.509" cy="424.472" r="3.2" fill="#3A342A" stroke="none">
      <title>Minsk</title>
    </circle>
    <circle class="mp-place" data-name="Sofia" data-iso="BG" data-rank="1" data-pop="1185000" cx="624.386" cy="698.225" r="3.2" fill="#3A342A" stroke="none">
      <title>Sofia</title>
    </circle>
    <circle class="mp-place" data-name="Belgrade" data-iso="RS" data-rank="1" data-pop="1099000" cx="566.264" cy="657.836" r="3.2" fill="#3A342A" stroke="none">
      <title>Belgrade</title>
    </circle>
    <circle class="mp-place" data-name="Tirana" data-iso="AL" data-rank="1" data-pop="895350" cx="569.428" cy="742.087" r="3.2" fill="#3A342A" stroke="none">
      <title>Tirana</title>
    </circle>
    <circle class="mp-place" data-name="Riga" data-iso="LV" data-rank="1" data-pop="742572" cx="561.752" cy="366.47" r="3.2" fill="#3A342A" stroke="none">
      <title>Riga</title>
    </circle>
    <circle class="mp-place" data-name="Zagreb" data-iso="HR" data-rank="1" data-pop="722526" cx="489.014" cy="645.612" r="3.2" fill="#3A342A" stroke="none">
      <title>Zagreb</title>
    </circle>
    <circle class="mp-place" data-name="Sarajevo" data-iso="BA" data-rank="1" data-pop="696731" cx="534.95" cy="686.389" r="3.2" fill="#3A342A" stroke="none">
      <title>Sarajevo</title>
    </circle>
    <circle class="mp-place" data-name="Chisinau" data-iso="MD" data-rank="1" data-pop="688134" cx="688.924" cy="575.161" r="3.2" fill="#3A342A" stroke="none">
      <title>Chisinau</title>
    </circle>
    <circle class="mp-place" data-name="Vilnius" data-iso="LT" data-rank="1" data-pop="542366" cx="589.911" cy="414.644" r="3.2" fill="#3A342A" stroke="none">
      <title>Vilnius</title>
    </circle>
    <circle class="mp-place" data-name="Tallinn" data-iso="EE" data-rank="1" data-pop="394024" cx="555.87" cy="307.538" r="3.2" fill="#3A342A" stroke="none">
      <title>Tallinn</title>
    </circle>
    <circle class="mp-place" data-name="Nicosia" data-iso="CY" data-rank="1" data-pop="224300" cx="857.783" cy="819.129" r="3.2" fill="#3A342A" stroke="none">
      <title>Nicosia</title>
    </circle>
    <circle class="mp-place" data-name="Reykjavik" data-iso="IS" data-rank="1" data-pop="166212" cx="51.668" cy="154.873" r="3.2" fill="#3A342A" stroke="none">
      <title>Reykjavik</title>
    </circle>
    <circle class="mp-place" data-name="Skopje" data-iso="MK" data-rank="1" data-pop="494087" cx="595.064" cy="721.04" r="3.2" fill="#3A342A" stroke="none">
      <title>Skopje</title>
    </circle>
    <circle class="mp-place" data-name="Pristina" data-rank="1" data-pop="465186" cx="587.418" cy="706.229" r="3.2" fill="#3A342A" stroke="none">
      <title>Pristina</title>
    </circle>
    <circle class="mp-place" data-name="Bratislava" data-iso="SK" data-rank="1" data-pop="423737" cx="500.176" cy="588.146" r="3.2" fill="#3A342A" stroke="none">
      <title>Bratislava</title>
    </circle>
    <circle class="mp-place" data-name="Ljubljana" data-iso="SI" data-rank="1" data-pop="314807" cx="463.993" cy="642.117" r="3.2" fill="#3A342A" stroke="none">
      <title>Ljubljana</title>
    </circle>
    <circle class="mp-place" data-name="Bern" data-iso="CH" data-rank="1" data-pop="275329" cx="348.164" cy="626.755" r="3.2" fill="#3A342A" stroke="none">
      <title>Bern</title>
    </circle>
    <circle class="mp-place" data-name="Podgorica" data-iso="ME" data-rank="1" data-pop="145850" cx="555.236" cy="716.735" r="3.2" fill="#3A342A" stroke="none">
      <title>Podgorica</title>
    </circle>
    <circle class="mp-place" data-name="Luxembourg" data-iso="LU" data-rank="1" data-pop="107260" cx="328.086" cy="562.722" r="3.2" fill="#3A342A" stroke="none">
      <title>Luxembourg</title>
    </circle>
    <circle class="mp-place" data-name="Geneva" data-iso="CH" data-rank="2" data-pop="1240000" cx="326.278" cy="643.185" r="2.2" fill="#3A342A" stroke="none">
      <title>Geneva</title>
    </circle>
    <circle class="mp-place" data-name="The Hague" data-iso="NL" data-rank="2" data-pop="1406000" cx="302.605" cy="503.537" r="2.2" fill="#3A342A" stroke="none">
      <title>The Hague</title>
    </circle>
  </g>
  <g class="mp-layer mp-labels"/>
  <g class="mp-layer mp-annotations"/>
  <g class="mp-layer mp-furniture"/>
</svg>